<?xml version="1.0" encoding="utf-8"?>
<!-- Generator: Adobe Illustrator 26.2.1, SVG Export Plug-In . SVG Version: 6.00 Build 0)  -->
<svg version="1.1" id="eE712PWqkp41" text-rendering="geometricPrecision" shape-rendering="geometricPrecision"
	 xmlns="http://www.w3.org/2000/svg" xmlns:xlink="http://www.w3.org/1999/xlink" x="0px" y="0px" viewBox="0 0 1513.2 931.7"
	 style="enable-background:new 0 0 1513.2 931.7;" xml:space="preserve">
<style type="text/css">
	.st0{fill:none;stroke:#1D1D1B;stroke-width:2;stroke-miterlimit:10;}
	.st1{fill:#8CAB66;stroke:#1D1D1B;stroke-width:2;stroke-miterlimit:10;}
	.st2{fill:#1D1D1B;}
	.st3{fill:#8CAB66;stroke:#1D1D1B;stroke-width:2;stroke-linejoin:round;}
	.st4{fill:none;stroke:#1D1D1B;stroke-width:2;stroke-linejoin:round;}
	.st5{fill:#FFF29B;stroke:#1D1D1B;stroke-width:2;stroke-linejoin:round;}
	.st6{fill:#E97F75;stroke:#1D1D1B;stroke-width:2;stroke-linejoin:round;}
	.st7{fill:#8DA0D2;stroke:#1D1D1B;stroke-width:2;stroke-miterlimit:10;}
	.st8{fill:#EA7F75;stroke:#1D1D1B;stroke-width:2;stroke-miterlimit:10;}
	.st9{fill:#F6A006;stroke:#1D1D1B;stroke-width:2;stroke-linejoin:round;}
	.st10{display:none;}
	.st11{display:inline;fill:#FBDEDA;stroke:#1D1D1B;stroke-width:2;stroke-linecap:round;stroke-linejoin:round;}
	.st12{display:inline;fill:none;stroke:#1D1D1B;stroke-width:2;stroke-linecap:round;stroke-miterlimit:10;}
	.st13{display:inline;fill:#E8D0C1;stroke:#1D1D1B;stroke-width:2;stroke-linejoin:round;}
	.st14{display:inline;fill:none;stroke:#1D1D1B;stroke-width:2;stroke-linejoin:round;}
	.st15{display:inline;fill:#F2B1B7;stroke:#1D1D1B;stroke-width:2;stroke-linecap:round;stroke-linejoin:round;}
	.st16{display:inline;fill:#1D1D1B;}
	.st17{display:inline;fill:none;stroke:#1D1D1B;stroke-width:2;stroke-linecap:round;stroke-linejoin:round;}
	.st18{display:inline;fill:#461A00;stroke:#1D1D1B;stroke-width:2;stroke-linejoin:round;}
	.st19{display:inline;fill:#1D1D1B;stroke:#1D1D1B;stroke-linejoin:round;}
	.st20{display:inline;fill:#F2B1B7;stroke:#1D1D1B;stroke-width:2;stroke-linejoin:round;}
	.st21{display:inline;fill:#FFFFFF;stroke:#1D1D1B;stroke-width:2;stroke-linejoin:round;}
	.st22{display:inline;fill:#2D440F;stroke:#1D1D1B;stroke-width:2;stroke-linejoin:round;}
	.st23{fill:#EA590C;stroke:#1D1D1B;stroke-width:2;stroke-linejoin:round;}
	.st24{fill:#EE74A0;stroke:#1D1D1B;stroke-width:2;stroke-linejoin:round;stroke-miterlimit:4;}
	.st25{fill:none;stroke:#1D1D1B;stroke-width:2;stroke-linejoin:round;stroke-miterlimit:4;}
	.st26{fill:#8CAB66;stroke:#1D1D1B;stroke-width:2;stroke-linejoin:round;stroke-miterlimit:4;}
</style>
<g id="eE712PWqkp421_00000169527875879561701390000006381262510332219265_" transform="matrix(1 0 0 1 0 0.000015)">
	<path id="eE712PWqkp422_00000085250580073096410360000013248579702223575469_" class="st0" d="M408,767L408,767
		c-7.2,22.6-15.3,44.7-24.6,66.1"/>
	<path id="eE712PWqkp423_00000029039177051892048040000002466066050700824743_" class="st0" d="M450.6,564.3l-8.4,57l-4.3,29.1
		c-0.2,1-0.3,2.1-0.5,3.1"/>
	
		<line id="eE712PWqkp424_00000143599339596409532420000011655780525103879063_" class="st0" x1="457.2" y1="519.4" x2="463.9" y2="474.1"/>
	<path id="eE712PWqkp425_00000168807832697055356310000014800129980798447265_" class="st0" d="M476.8,385.9c-0.2,2.8-0.6,5.5-1,8.2
		l-4.4,29.9"/>
	<path id="eE712PWqkp426_00000147196673777791862860000005239232449253942934_" class="st1" d="M505.9,343.7
		c18.5,18.1-29.1,42.1-29.1,42.1S487.4,325.6,505.9,343.7z"/>
	<path id="eE712PWqkp428_00000126302961083454642350000013569608202667668359_" class="st0" d="M476.8,385.8"/>
	
		<line id="eE712PWqkp429_00000016062302418133542800000007625000303393184941_" class="st0" x1="464.4" y1="470.9" x2="470.9" y2="427.3"/>
	
		<line id="eE712PWqkp430_00000173854780191100688450000005816529316088295814_" class="st0" x1="451.2" y1="560.2" x2="456.8" y2="522"/>
	<path id="eE712PWqkp431_00000122686717517442953280000012020251155508926117_" class="st0" d="M437.3,653.5
		c-0.3,1.9-0.7,3.8-1.1,5.6C427.3,701,417.7,736.6,408,767"/>
	<path id="eE712PWqkp432_00000143618455433089460320000014444247463306985625_" class="st0" d="M312.4,932.3
		c0,0,33.7-13.1,71.1-99.2"/>
	<path id="eE712PWqkp433_00000023272468400529150420000017709886383410170255_" class="st2" d="M493.9,360.6
		c-1.1,0.7-2.2,1.5-3.2,2.4c-2,1.9-3.8,4.2-5.4,6.7c-0.4,0.6-0.8,1.2-1.2,1.9l-1.1,1.9c-0.7,1.4-1.4,2.7-2,4.1
		c-0.6,1.4-1.2,2.8-1.8,4.2l-1.7,4.3l-1.4-0.9l1.9-4.3c0.7-1.4,1.3-2.8,2.1-4.2c0.7-1.4,1.5-2.7,2.2-4l1.2-1.9
		c0.4-0.6,0.8-1.3,1.3-1.9c1.7-2.5,3.6-4.6,5.8-6.4c1.1-0.9,2.2-1.7,3.4-2.3c1.2-0.6,2.4-1,3.7-1C496.2,359.4,495,359.9,493.9,360.6
		z"/>
	<path id="eE712PWqkp440_00000019640555081491937100000010820418449399840433_" class="st3" d="M506.6,412.7
		c3.7,17.6-35.7,14.5-35.7,14.5l0.3-1.8l0.2-1.4C471.4,424,502.8,395.1,506.6,412.7z"/>
	<polygon id="eE712PWqkp441_00000039814948951806562730000011561732704728518293_" class="st2" points="471,424.5 495.1,418.1 
		471.3,426.4 	"/>
	<path id="eE712PWqkp442_00000060714678373619816970000006078425472508219036_" class="st3" d="M445.5,430.3
		c18.3-0.1,18.9,40.5,18.9,40.5l-0.3,2.2l-0.2,1c-20.5-23.2-23-34.6-22.3-39.8C442.1,432,443.7,430.3,445.5,430.3z"/>
	<path id="eE712PWqkp443_00000027568841182532829570000014590887779420261027_" class="st2" d="M456.8,449.6
		c1.3,2.3,2.4,4.7,3.5,7.3c1,2.5,1.9,5.2,2.6,7.8c0.4,1.3,0.7,2.7,1,4.1c0.3,1.4,0.6,2.8,0.9,4.2l-1.5,0.4c-0.2-1.4-0.4-2.8-0.7-4.1
		c-0.3-1.3-0.5-2.7-0.8-4.1c-0.6-2.7-1.4-5.3-2.2-7.9c-0.9-2.6-1.9-5-3.1-7.4c-1.2-2.4-2.5-4.6-4-6.6
		C454.1,445.1,455.6,447.3,456.8,449.6z"/>
	<path id="eE712PWqkp444_00000150068397336384736560000005087521833346462641_" class="st3" d="M502.4,493.4
		c2.2,12.9-38,37.1-45.6,28.6l0.2-1.1l0.2-1.5C457.2,519.4,500.3,480.5,502.4,493.4z"/>
	<path id="eE712PWqkp445_00000054957047888490823680000014324182832617393597_" class="st2" d="M467.2,518c-1.6,0.8-3.3,1.7-4.9,2.4
		c-1.7,0.8-3.4,1.3-5.2,1.6l-0.1-2c1.7-0.1,3.4-0.5,5-1c1.7-0.5,3.3-1.2,5-1.9c3.3-1.4,6.6-3,9.8-4.7
		C473.6,514.3,470.4,516.3,467.2,518z"/>
	<path id="eE712PWqkp446_00000139253159054694233250000001647397043448586139_" class="st3" d="M423.5,528.8
		c1.9-1.7,4.1-2.6,6.4-2.4c17.9,0.8,21.2,33,21.3,33.9l0,0l-0.2,1.3l-0.4,2.7c-0.1-4.3-4.9-6.3-7.2-7.1c-1.2-0.4-2.3-0.8-3.4-1.4
		l-11.6-5.8c-1.3-0.6-2.5-1.6-3.5-2.8C417.2,537.6,420.4,531.7,423.5,528.8z"/>
	<path id="eE712PWqkp447_00000160901088019154859640000000469874560415117756_" class="st2" d="M436.9,540.8
		c2.1,1.6,4.1,3.4,5.9,5.4c0.9,1,1.8,2.1,2.7,3.2c0.8,1.1,1.6,2.4,2.4,3.6c1.5,2.5,2.8,5.2,3.9,8.1l-1.4,0.8c-0.9-2.8-2-5.5-3.4-8
		c-0.6-1.3-1.4-2.5-2.2-3.7s-1.6-2.3-2.5-3.3c-1.7-2.1-3.6-4.1-5.6-5.8c-2-1.7-4.1-3.2-6.3-4.4C432.6,537.9,434.8,539.2,436.9,540.8
		z"/>
	<path id="eE712PWqkp448_00000052820652281071049020000015219557033349735309_" class="st3" d="M442.1,621.2
		c0.9-1.1,26.3-33.1,32.3-18.2C480.5,618.2,447.9,623.2,442.1,621.2L442.1,621.2z"/>
	<path id="eE712PWqkp449_00000168117435473172935180000014373366336593696931_" class="st2" d="M461.9,610c-2.3,1-4.6,2-6.8,3.2
		c-2.2,1.2-4.4,2.5-6.5,4c-2.1,1.5-4.1,3.1-6.1,4.9l-0.9-1.6c2.1-1.7,4.2-3.2,6.4-4.6c2.2-1.3,4.5-2.5,6.7-3.6c2.3-1,4.6-2,7-2.8
		c2.3-0.8,4.7-1.5,7.1-2C466.5,608.2,464.2,609,461.9,610z"/>
	<path id="eE712PWqkp450_00000064340952041502926530000008723340310400861077_" class="st3" d="M409.9,608.9
		c19-6,27.2,43.3,27.4,44.7l0,0l-20.2-14.5c-1.7-1.2-3.3-2.7-4.7-4.5c-7.8-9.7-8.3-16.4-7.2-20.3
		C405.9,611.5,407.7,609.5,409.9,608.9z"/>
	<polygon id="eE712PWqkp451_00000044170911298714155610000018357626740121061546_" class="st2" points="437.6,652.6 437,654.5 
		437.3,653.5 	"/>
	<path id="eE712PWqkp452_00000029040988053288896960000009256638928942826666_" class="st2" d="M435.5,649.2l-1.9-4.2
		c-1.4-2.7-2.7-5.4-4.3-8c-1.5-2.6-3.1-5-4.9-7.3c-0.9-1.2-1.8-2.2-2.8-3.2c-0.5-0.5-1-1-1.5-1.4c-0.5-0.4-1-0.8-1.5-1.1l0.6-1.8
		c0.6,0.4,1.2,0.9,1.7,1.4c0.5,0.5,1,1,1.5,1.6c1,1.1,1.9,2.3,2.7,3.5c1.7,2.4,3.3,5,4.7,7.7c1.5,2.7,2.7,5.5,4,8.3l1.8,4.3l1.7,4.4
		L435.5,649.2z"/>
	<path id="eE712PWqkp453_00000029727582891965676420000002429644680100838026_" class="st3" d="M459.5,711.7
		c1.6,10-10.4,16.3-15.7,18.6c-1.7,0.7-3.5,1-5.3,0.9c-6.3-0.4-12.5-2.5-18.2-6C420.3,725.2,457.5,698.9,459.5,711.7z"/>
	<path id="eE712PWqkp454_00000054983652187778241290000003823447922026877066_" class="st2" d="M438.7,723.7c-2,0.7-4,1.3-6,1.8
		c-2,0.5-4.1,0.8-6.2,0.9c-2.1,0.1-4.2,0.1-6.3-0.2l0.2-2c2,0.4,4,0.6,6,0.6c2,0,4.1-0.1,6.1-0.4c2-0.3,4.1-0.7,6.1-1.3
		c2-0.5,4-1.2,5.9-2C442.6,722.2,440.7,723,438.7,723.7z"/>
	<path id="eE712PWqkp455_00000114796190187569640690000011135681242375072152_" class="st3" d="M396.4,719.4
		c1.1-1.1,2.5-1.4,3.8-0.8c11.4,4.9,7.9,47,7.8,48.4l0,0l0,0c-12.3-13.2-13.9-22.2-13.9-22.2C390.4,729.7,393.5,722.1,396.4,719.4z"
		/>
	<polygon id="eE712PWqkp456_00000099621534848203362400000015266961171798664839_" class="st4" points="408,767 408,767 408,767 	
		"/>
	<polygon id="eE712PWqkp457_00000044138372180470194320000005349579537808607159_" class="st2" points="408,765 399.7,729.7 
		406.6,765.5 	"/>
	<polygon id="eE712PWqkp458_00000175288257965999416420000017258161922760645043_" class="st2" points="408.7,766.6 408,767 
		407.3,767.4 	"/>
	<path id="eE712PWqkp459_00000036249145539170604000000007262790592742892954_" class="st3" d="M425.5,797.8
		c1.3,14-14.5,14.6-14.5,14.6s-10.7,0.7-16-8C395.1,804.4,424.2,783.8,425.5,797.8z"/>
	<path id="eE712PWqkp460_00000120546441167106555840000000838336403963380364_" class="st2" d="M410.7,805.7
		c-1.7,0.7-3.5,1.1-5.2,1.3c-1.8,0.2-3.6,0.2-5.4-0.1c-1.8-0.3-3.6-0.8-5.3-1.5l0.5-1.9c1.6,0.8,3.2,1.5,4.9,1.9
		c1.7,0.4,3.4,0.6,5.2,0.6c1.7,0,3.5-0.3,5.2-0.8c1.7-0.5,3.4-1.2,5-2.2C414.1,804.1,412.4,805,410.7,805.7z"/>
	<path id="eE712PWqkp461_00000173155469395609298680000006532191470440261304_" class="st3" d="M360.3,787.8
		c21.6-8.1,23.2,44,23.2,45.3l0,0C382.8,832.6,338.7,795.9,360.3,787.8z"/>
	<path id="eE712PWqkp462_00000069383763796983878970000003521534316633213840_" class="st4" d="M383.5,833.1L383.5,833.1z"/>
	<path id="eE712PWqkp463_00000023965836248147134130000002748255286659151792_" class="st2" d="M382.8,833.6c-1-2.9-2.2-5.7-3.4-8.5
		c-1.2-2.8-2.5-5.6-3.8-8.3c-1.3-2.7-2.7-5.3-4.2-7.9c-1.5-2.6-3-5.1-4.7-7.5c1.7,2.3,3.4,4.7,5,7.2c1.6,2.4,3.1,5,4.5,7.6
		c1.4,2.6,2.8,5.3,4.1,8.1c1.3,2.8,2.6,5.5,3.7,8.4L382.8,833.6z"/>
	<polygon id="eE712PWqkp464_00000026125094077311259640000011683549493370492048_" class="st2" points="383.7,832.2 383.5,833.1 
		383.2,834 	"/>
</g>
<g id="eE712PWqkp4181" transform="matrix(1 0 0 1 0 0.000005)">
	<path id="eE712PWqkp4182" class="st5" d="M641.8,743.5c0,1.4,0,2.8-0.1,4.2c0,0-3.2-4-3.5-4.3c-4.7-6.9-10-13.3-15.8-19.3l0,0
		c-0.2-0.6-6.9-20.9,0-25.6c5.6-3.8,12.5,12.6,15,19.1l0,0c0.6,1.6,0.9,2.6,0.9,2.6C640.4,727.7,641.6,735.6,641.8,743.5z"/>
	<path id="eE712PWqkp4183" class="st5" d="M641.7,747.7c0,0-35.4-5.6-39-31.3c-0.1-0.8,0.2-1.6,0.7-2.1s1.3-0.8,2.1-0.8
		c3.1,0.3,8.5,2.3,16.8,10.6l0,0c5.8,6,11.1,12.4,15.8,19.3C638.5,743.7,641.7,747.7,641.7,747.7z"/>
	<path id="eE712PWqkp4184" class="st3" d="M703.8,853.2c-1-1.3-2-2.5-3-3.8c0,0-4-30.8,10.6-26.5S703.8,853.2,703.8,853.2z"/>
	<path id="eE712PWqkp4185" class="st4" d="M641.7,747.7c0,0,4,31,44.5,81.6"/>
	<path id="eE712PWqkp4186" class="st4" d="M686.2,829.3c43.4,53,31.8,101.5,31.8,101.5"/>
	<path id="eE712PWqkp4187" class="st5" d="M641.8,743.5c-0.2-7.9-1.4-15.7-3.6-23.3c-2.1-7.6-0.3-1-0.9-2.6l0,0
		c0.1-0.7,3.4-30.2,18.4-24.1C671,699.6,641.8,743.5,641.8,743.5z"/>
</g>
<path id="eE712PWqkp4184_00000183962801698380039630000012281834298875959426_" class="st3" d="M950.5,622.6c0,0-12.1-33.8,2.5-29.5
	s0.5,33.3,0.5,33.3"/>
<path class="st4" d="M1034.7,684.1c0,0-87.4-48.4-113.1-97.3S896,538,896,538"/>
<path id="eE712PWqkp4189_00000041260668777650614150000002261200163802553490_" class="st4" d="M816.8,538.9"/>
<path id="eE712PWqkp4192_00000083808225708856613360000008528330932663463813_" class="st4" d="M811.9,518.1L811.9,518.1"/>
<path id="eE712PWqkp4193_00000147183624959397513310000009603033275833828745_" class="st6" d="M896.3,497.4c0.8-0.7,1.9-1,3-0.8
	s2,0.7,2.7,1.5c10.5,13-5.3,47-6.5,39.9c-1.2-7-2.8-14-4.9-20.8C890.1,504.8,893.5,499.6,896.3,497.4z"/>
<path id="eE712PWqkp4194_00000143605314377769622160000009071173333039276979_" class="st6" d="M873.6,497.7
	c8.2-4.6,14.4,7.9,18.2,20.4c2.1,6.8,3.7,13.8,4.9,20.8c-6.5-5.6-12.5-11.7-18-18.3C871.4,511.6,866.2,501.8,873.6,497.7z"/>
<path id="eE712PWqkp4195_00000027575826563861360990000006130597186249438909_" class="st6" d="M855.1,519.2
	c3.7-12,18.1-5.1,23.6,1.4c5.5,6.6,11.5,12.7,18,18.3h-10.3c-6.5,0-12.8-1.4-18.7-4.2C860.6,531.3,853,525.9,855.1,519.2z"/>
<g id="eE712PWqkp421_00000029757358576169155390000008887851339435934603_" transform="matrix(1 0 0 1 0 0.000015)">
	<path id="eE712PWqkp422_00000126293798194132222720000004626502142639720365_" class="st0" d="M789.2,706.1L789.2,706.1
		c-0.8,27.5-3.8,54.9-8.9,82.1"/>
	<path id="eE712PWqkp423_00000088091776618886123270000000257135501004813699_" class="st0" d="M759.6,471.3l14.4,64.1l7.3,32.8
		c0.3,1.2,0.5,2.4,0.7,3.6"/>
	
		<line id="eE712PWqkp424_00000021078982978819860650000011334005920272220071_" class="st0" x1="748.3" y1="420.9" x2="736.9" y2="369.9"/>
	<path id="eE712PWqkp425_00000008837909407303472580000013500511838543518116_" class="st0" d="M709.1,250.3
		c1.3,6.9,3,13.7,5.1,20.4c1,3,1.8,6.1,2.5,9.1l7.6,33.7"/>
	<path id="eE712PWqkp426_00000119112871233365601780000012978096551315506309_" class="st1" d="M753.6,1.8c41.2,9.2-29,59.4-29,59.4
		S712.4-7.4,753.6,1.8z"/>
	<path id="eE712PWqkp427_00000176758565953055612000000006184902480619409830_" class="st0" d="M706.7,234.7
		c-0.9-7.2-1.6-15.3-2-24.4c-1-27.9,0.8-55.8,5.4-83.5"/>
	<path id="eE712PWqkp428_00000085224895423254111230000012388118833650877347_" class="st0" d="M710.7,122.7
		c3.1-18.8,7.6-39.3,13.9-61.4"/>
	
		<line id="eE712PWqkp429_00000150071805851035302710000002946246618065796794_" class="st0" x1="736.1" y1="366.3" x2="725.1" y2="317.2"/>
	
		<line id="eE712PWqkp430_00000135650836114854851490000006499599379716038031_" class="st0" x1="758.6" y1="466.8" x2="749" y2="423.8"/>
	<path id="eE712PWqkp431_00000095297968374321573820000008604973407180091268_" class="st0" d="M782.1,571.8c0.4,2.1,0.8,4.3,1,6.4
		c5.8,48.5,7.4,90.9,6.1,127.8"/>
	<path id="eE712PWqkp432_00000090271189632845197130000009862256008771935667_" class="st0" d="M710.2,932.7
		c0,0,49.2-34.7,70.1-144.5"/>
	<path id="eE712PWqkp433_00000144324874920364208160000011920636938779685262_" class="st2" d="M741.4,25.8
		c-1.6,1.3-3.1,2.7-4.4,4.3c-2.5,3.1-4.5,6.4-5.9,9.8c-0.4,0.9-0.7,1.7-1,2.6l-0.9,2.6c-0.5,1.8-1.1,3.5-1.4,5.4
		c-0.3,1.8-0.7,3.6-1,5.4l-0.7,5.4l-2.8-0.2l1-5.5c0.4-1.8,0.9-3.6,1.4-5.5c0.5-1.8,1.2-3.6,1.8-5.4l1.1-2.6
		c0.4-0.9,0.8-1.8,1.2-2.6c1.7-3.5,3.9-6.8,6.7-9.8c1.4-1.5,3-2.9,4.7-4.1c1.7-1.3,3.7-2.3,5.9-3C744.9,23.4,743,24.5,741.4,25.8z"
		/>
	<path id="eE712PWqkp434_00000155862781859048080670000008088532506216861062_" class="st1" d="M644.1,93.7c25-21.6,66.6,29,66.6,29
		l-0.1,0.5c-0.2,1.2-0.4,2.4-0.6,3.6C625.1,115.2,644.1,93.7,644.1,93.7z"/>
	<path id="eE712PWqkp435_00000039826705616048676960000001484018657081438633_" class="st2" d="M680.2,105.8
		c3.8,1.6,7.5,3.3,11.1,5.1c3.6,1.8,7.2,3.8,10.6,5.9c3.4,2.1,6.6,4.5,9.6,7l-2.2,1.4c-2.7-2.6-5.6-5-8.7-7.2
		c-3.1-2.2-6.5-4.3-9.9-6.3c-3.5-2-7-3.8-10.7-5.6s-7.3-3.5-11.1-5C672.7,102.6,676.5,104.2,680.2,105.8z"/>
	<path id="eE712PWqkp436_00000055667227879159495510000011057754272332674442_" class="st3" d="M763.6,170.4
		c12.5,16.2-59,39.9-59,39.9S751.2,154.2,763.6,170.4z"/>
	<polygon id="eE712PWqkp437_00000064323809530352530250000006345797699600909206_" class="st2" points="705.6,211.2 703.8,209.5 
		745.3,183.8 	"/>
	<path id="eE712PWqkp438_00000020364264113785150620000008985663116969667762_" class="st3" d="M658.6,219.4
		c23.2-13.1,48.1,15.4,48.1,15.4c0.6,4.8,1.3,9.2,2,13.1c0.2,0.9,0.3,1.7,0.5,2.5C639.9,229.6,658.6,219.4,658.6,219.4z"/>
	<path id="eE712PWqkp439_00000035495299687291578760000009830813755426287519_" class="st2" d="M683.2,227.2
		c0.8,0.2,1.6,0.5,2.4,0.9c0.8,0.3,1.6,0.7,2.3,1c3,1.5,5.9,3.2,8.5,5.1c2.6,1.9,5,4,7.3,6.2l3.2,3.4l3,3.5l-2.4,1.1l-2.6-3.6
		l-2.8-3.4c-2-2.2-4.2-4.4-6.6-6.4c-2.4-2-5-3.9-7.8-5.4c-0.8-0.4-1.4-0.8-2.2-1.1c-0.8-0.3-1.5-0.7-2.3-1c-1.6-0.6-3.2-1.1-5-1.3
		C679.9,226.3,681.6,226.7,683.2,227.2z"/>
	<path id="eE712PWqkp440_00000083770615791368340690000008818191132729229237_" class="st3" d="M779.4,283.2
		c15.4,16.5-54.3,33.9-54.3,33.9l-0.5-2.1l-0.3-1.5C724.3,313.5,764,266.7,779.4,283.2z"/>
	<polygon id="eE712PWqkp441_00000106134721852032779580000009515893439851989438_" class="st2" points="723.8,314.2 762.4,294.8 
		725.4,316 	"/>
	<path id="eE712PWqkp442_00000136375361765919529650000005905242144281582776_" class="st3" d="M682.7,333.7
		c31.6-9.7,53.4,32.5,53.4,32.5l0.6,2.5l0.2,1.1c-47.3-13.6-57.4-24.2-58.8-30C677.6,337.2,679.5,334.6,682.7,333.7z"/>
	<path id="eE712PWqkp443_00000057868680492245936050000015869415299713261447_" class="st2" d="M712.1,347.9
		c3.4,1.7,6.6,3.7,9.7,5.8c3,2.1,5.9,4.4,8.5,6.8c1.4,1.2,2.6,2.5,3.9,3.7c1.2,1.3,2.4,2.6,3.6,3.9l-2.4,1.2c-1.1-1.3-2-2.7-3.2-4
		c-1.2-1.3-2.2-2.6-3.5-3.8c-2.4-2.5-5.1-4.9-7.9-7.1c-2.9-2.2-5.9-4.3-9.1-6.1c-3.2-1.9-6.7-3.5-10.4-4.8
		C705.1,344.7,708.7,346.2,712.1,347.9z"/>
	<path id="eE712PWqkp444_00000021827354918376358850000004416563751558577308_" class="st3" d="M795.2,389.2
		c10.3,12.3-28.8,39.5-46.2,34.6l-0.3-1.2l-0.4-1.7C748.3,420.9,784.9,376.9,795.2,389.2z"/>
	<path id="eE712PWqkp445_00000142156468346395116510000010630959929246290571_" class="st2" d="M764.9,414.1
		c-2.4,1.7-4.8,3.5-7.3,5.1c-2.5,1.7-5.3,3.2-8.2,4.4l-1.2-2c2.9-1,5.6-2.3,8.1-3.7c2.6-1.4,5.2-3,7.7-4.6c5-3.2,9.8-6.6,14.5-10.1
		C774.1,407,769.6,410.6,764.9,414.1z"/>
	<path id="eE712PWqkp446_00000174598773728100100290000011201674928067542670_" class="st3" d="M694.7,448.4
		c2.3-2.8,5.8-4.8,9.8-5.9c31.4-8.5,53.5,23.4,54.1,24.3l0,0l0.3,1.5l0.7,3c-2.5-4.5-11.6-4.1-16.1-3.6c-2.2,0.2-4.4,0.3-6.7,0.3
		h-22.9c-2.5,0-5.1-0.4-7.4-1.1C688.3,460.9,690.8,453.1,694.7,448.4z"/>
	<path id="eE712PWqkp447_00000110452005590436514280000005713736036776357253_" class="st2" d="M724,454c4.4,0.6,8.8,1.4,13,2.6
		c2.1,0.5,4.2,1.3,6.2,2c2,0.8,4,1.6,5.9,2.5c3.9,1.8,7.5,4,10.8,6.5l-2,1.6c-3-2.5-6.3-4.7-9.9-6.6c-1.8-1-3.6-1.9-5.6-2.7
		c-2-0.8-3.9-1.6-6-2.2c-4.1-1.3-8.3-2.4-12.6-3.1c-4.3-0.8-8.7-1.2-13.2-1.3C715.2,453.1,719.6,453.4,724,454z"/>
	<path id="eE712PWqkp448_00000080914502139529958700000012930881544002997376_" class="st3" d="M774,535.4
		c1-1.6,37.7-58.8,55.7-46.4C847.9,501.7,785,534.5,774,535.4L774,535.4z"/>
	<path id="eE712PWqkp449_00000052814124059287535200000011010149166070613919_" class="st2" d="M802.5,513.3
		c-3.5,2.2-6.8,4.5-10.1,6.9c-3.2,2.4-6.3,4.9-9.2,7.6c-2.9,2.6-5.6,5.4-8,8.3l-2.4-1.3c2.7-2.9,5.6-5.6,8.8-8.2
		c3.1-2.6,6.4-5,9.9-7.3c3.5-2.2,7-4.5,10.6-6.5c3.6-2.1,7.4-4,11.2-5.8C809.6,509,806,511.1,802.5,513.3z"/>
	<path id="eE712PWqkp450_00000136384230013567183460000011424347174325015443_" class="st3" d="M711.9,539.5
		c29.8-16.2,69.1,31.1,70.1,32.4l0,0l-42.4-4.6c-3.6-0.4-7.1-1.1-10.4-2.2c-18.5-6.1-22.7-12.8-22.9-17.5
		C706.4,544.3,708.5,541.3,711.9,539.5z"/>
	<polygon id="eE712PWqkp451_00000005261010723299495920000006510921755338789761_" class="st2" points="782.1,570.7 782.1,572.9 
		782.1,571.8 	"/>
	<path id="eE712PWqkp452_00000049223269971230434110000006158863144066006681_" class="st2" d="M776.7,568.3l-5.5-3.4
		c-3.7-2.1-7.5-4.3-11.5-6.1c-3.9-1.9-8-3.6-12.2-5c-2.1-0.8-4.2-1.3-6.4-1.9c-1.1-0.3-2.2-0.5-3.3-0.7c-1-0.2-2.1-0.3-3.2-0.4
		l0.1-2.2c1.2,0.1,2.5,0.3,3.7,0.6c1.2,0.2,2.3,0.5,3.4,0.9c2.2,0.7,4.4,1.4,6.5,2.2c4.2,1.6,8.2,3.5,12.1,5.6
		c3.9,2,7.5,4.3,11.1,6.6l5.3,3.6l5.1,3.7L776.7,568.3z"/>
	<path id="eE712PWqkp453_00000124870119675423151640000016912003513819837871_" class="st3" d="M850.2,621.2
		c7.8,9.6-9.7,22.5-17.8,27.7c-2.6,1.7-5.5,2.9-8.7,3.8c-11.1,2.9-22.9,4-34.5,3.3C789.2,655.9,840.1,608.8,850.2,621.2z"/>
	<path id="eE712PWqkp454_00000143606340396276771020000014931061090616354215_" class="st2" d="M820.2,644.7c-3.1,1.8-6.3,3.5-9.6,5
		c-3.3,1.6-6.7,3-10.2,4.2c-3.5,1.2-7.2,2.3-10.9,3.1l-0.7-2.2c3.7-0.6,7.3-1.5,10.8-2.5c3.5-1,7-2.3,10.3-3.6
		c3.4-1.4,6.7-2.9,9.8-4.5c3.2-1.6,6.3-3.4,9.3-5.3C826.2,641,823.3,642.9,820.2,644.7z"/>
	<path id="eE712PWqkp455_00000002348782474576392670000013832597438144752811_" class="st3" d="M744.8,662.3
		c1.4-1.7,3.7-2.8,6.2-2.9c22.3-0.8,37.7,45.1,38.2,46.6l0,0l0,0c-28-7.4-35.3-16-35.3-16C739.7,676.2,741.2,666.7,744.8,662.3z"/>
	<polygon id="eE712PWqkp456_00000129913155109079070430000007666803158015117243_" class="st4" points="789.2,706.1 789.2,706.1 
		789.2,706.1 	"/>
	<polygon id="eE712PWqkp457_00000123410005190290228870000013113803974490738570_" class="st2" points="757.5,673 789.2,706.1 
		755.3,674.4 	"/>
	<polygon id="eE712PWqkp458_00000078759598791370496700000007824753488268274063_" class="st2" points="790.2,705.3 789.2,706.1 
		788.2,706.9 	"/>
	<path id="eE712PWqkp459_00000070829651934279636040000002456928343752970881_" class="st3" d="M849.1,721.2
		c9.3,13.9-31.7,30.8-31.7,30.8s-18.1,6.3-31.7,0C785.8,752,839.8,707.3,849.1,721.2z"/>
	<path id="eE712PWqkp460_00000028317348699385027730000010178042208357389709_" class="st2" d="M813.5,745.2c-2.6,1.6-5.4,3-8.4,4.1
		c-3,1.2-6.1,2.1-9.4,2.7c-3.3,0.7-6.6,1.1-9.9,1.2v-2.2c3.2,0,6.4-0.2,9.5-0.6c3.2-0.4,6.3-1.1,9.2-2.1c3-0.9,5.9-2.1,8.6-3.5
		c2.7-1.4,5.3-3,7.5-4.9C818.6,741.8,816.2,743.6,813.5,745.2z"/>
	<path id="eE712PWqkp461_00000013905307965117117600000000633382029931809447_" class="st3" d="M717.1,752.9
		c33.3-19.8,62.5,34,63.2,35.3l0,0C778.9,788,683.9,772.7,717.1,752.9z"/>
	<path id="eE712PWqkp462_00000071546925572604232080000004227318229799980439_" class="st4" d="M780.3,788.2L780.3,788.2z"/>
	<path id="eE712PWqkp463_00000063634411792100748420000001288022174487625915_" class="st2" d="M779.3,789.1
		c-3.2-2.5-6.6-4.9-10.1-7.2c-3.5-2.3-7.1-4.5-10.7-6.7c-3.6-2.2-7.4-4.2-11.3-6.1c-3.8-2-7.8-3.7-11.9-5.4
		c4.1,1.5,8.3,3.2,12.2,4.9c4,1.7,7.9,3.6,11.7,5.6c3.8,2,7.6,4.1,11.2,6.3c3.6,2.2,7.3,4.4,10.8,6.9L779.3,789.1z"/>
	<polygon id="eE712PWqkp464_00000044866374719588538430000017364167272697771687_" class="st2" points="780.3,787.1 780.3,788.2 
		780.3,789.3 	"/>
</g>
<path id="eE712PWqkp4184_00000141452487153549844100000014289941440167792024_" class="st3" d="M489.2,820.4c0,0,17.6-29.5,27.5-18
	c9.9,11.5-27.1,22.8-27.1,22.8"/>
<path id="eE712PWqkp4184_00000159455395645158586850000013855138415292592046_" class="st3" d="M474.8,747c0,0-48.2-4.8-40.1-17.7
	S474.8,747,474.8,747"/>
<path id="eE712PWqkp4184_00000178909898090552660490000016731656020341360002_" class="st3" d="M507.5,656.3c0,0-34.9-1.1-26.7-14
	c8.1-12.9,26.7,11.5,26.7,11.5"/>
<path id="eE712PWqkp4184_00000046300875015999907750000000076083551434388864_" class="st3" d="M1037.3,850.1c0,0-44-13.3-35.9-26.1
	s35.9,23.7,35.9,23.7"/>
<path id="eE712PWqkp4184_00000170266707875955705460000015969882809892228997_" class="st3" d="M1017.6,551c0,0-34.9-1.1-26.7-14
	s26.7,11.5,26.7,11.5"/>
<path id="eE712PWqkp4184_00000000936550215926812810000003863302128268998310_" class="st3" d="M1038.8,725.2
	c0,0,29.4-41.6,39.3-30.1c9.9,11.5-38.8,34.9-38.8,34.9"/>
<g id="eE712PWqkp45" transform="matrix(1 0 0 1 0 0.000018)">
	<path id="eE712PWqkp46" class="st7" d="M45.5,642.4c0,0-38.5-29.3-43.8-65.9c-5.3-36.6,22.1,8.2,22.1,8.2s3.1,5.7,7,14
		c0.8,1.7,1.6,3.5,2.4,5.5C38.3,616.6,42.4,629.3,45.5,642.4z"/>
	<path id="eE712PWqkp47" class="st0" d="M44,781.9c16.4,98.6,66.4,148.8,66.4,148.8"/>
	<path id="eE712PWqkp48" class="st0" d="M43.9,781.5c-6.4-38.9-7.6-85.3,1.5-139.2"/>
	<path id="eE712PWqkp49" class="st1" d="M63,756.8c-4.9,7.5-18.6,24.6-19,25.1c0,0,0-0.1,0-0.1c0,0,0-0.1,0-0.1c0,0,0-0.1,0-0.2
		c-0.4-3.1-2.2-24.5,11.5-38.2C70.3,728.5,68,749.3,63,756.8z"/>
	<path id="eE712PWqkp410" class="st0" d="M44,781.9L44,781.9c0,0,0-0.1,0-0.1C44,781.9,44,781.9,44,781.9z"/>
	<path id="eE712PWqkp411" class="st7" d="M45.5,642.4c3.4-6,4.9-15.4,5.6-23.3c0.2-2.6,0.3-5.1,0.4-7.2
		c8.3-43.1,20.7-52.8,26.9-54.9c1.1-0.4,2.3-0.3,3.3,0.3c1,0.5,1.8,1.5,2.1,2.6C90.5,582.4,45.5,642.4,45.5,642.4z"/>
	<path id="eE712PWqkp412" class="st7" d="M51.5,604.5c0,0,0.1,3,0,7.3c-0.1,2.1-0.2,4.6-0.4,7.2c-0.7,7.9-2.2,17.3-5.6,23.3
		c-3.1-13-7.2-25.8-12.3-38.2c-5.6-34.3-1.5-46.2,1.7-50c1.3-1.5,3.5-1.9,5.3-1C53.1,560,51.5,604.5,51.5,604.5z"/>
</g>
<g id="eE712PWqkp413" transform="matrix(1 0 0 1 0.00001 0.000024)">
	<path id="eE712PWqkp414" class="st8" d="M172.9,807.8c-10.8,3.1-24.4-0.4-29.2-1.9c-1.2-0.4-2.4-0.9-3.5-1.5
		c-6.6-3.7-30.3-18-23.1-34.3c4-9,16.8-0.9,29.1,10l0,0C155.7,788.8,164.6,798,172.9,807.8z"/>
	<path id="eE712PWqkp415" class="st0" d="M209,878.8c6.3,16.8,11,34.2,14.1,51.9"/>
	<path id="eE712PWqkp416" class="st0" d="M172.9,807.8c0,0,16.7,23.3,31.4,58.9"/>
	<path id="eE712PWqkp417" class="st1" d="M209,878.8c-1.2-3.3-2.4-6.4-3.7-9.5l-0.1-0.1c-0.3-0.8-0.6-1.6-1-2.4v-0.1
		c-2-5.8-5-20.2,8-34.2C229.1,814.4,209,878.8,209,878.8z"/>
	<path id="eE712PWqkp418" class="st0" d="M205.3,869.1c-0.4-0.8-0.7-1.6-1-2.4"/>
	<path id="eE712PWqkp419" class="st8" d="M172.9,807.8c-8.3-9.7-17.2-19-26.7-27.6l0,0c-0.8-1-18.5-23.5-0.9-31.1
		c11.5-5,19.6,20.5,24,39.4C171.7,799.2,172.9,807.8,172.9,807.8z"/>
	<path id="eE712PWqkp420" class="st8" d="M185.4,783.8c-0.3,1.1-0.7,2.1-1.2,3.1c-1.7,3.3-6.2,12-11.2,21c0,0-1.2-8.6-3.7-19.3
		c0,0-6.5-44.4,10.8-43.4C195.2,746,187.5,776.4,185.4,783.8z"/>
</g>
<g id="eE712PWqkp421" transform="matrix(1 0 0 1 0 0.000015)">
	<path id="eE712PWqkp422" class="st0" d="M264.7,801.9c-3.6-24.2-5.7-48.7-6.2-73.2l0,0"/>
	<path id="eE712PWqkp423" class="st0" d="M263.4,609.1c0.2-1.1,0.3-2.1,0.5-3.2l5.2-29.2l10.1-57.1"/>
	<line id="eE712PWqkp424" class="st0" x1="295.2" y1="429.2" x2="287.2" y2="474.6"/>
	<path id="eE712PWqkp425" class="st0" d="M304.1,378.9l5.3-30c0.5-2.7,1.1-5.5,1.8-8.1c1.5-6,2.7-12.1,3.6-18.2"/>
	<path id="eE712PWqkp426" class="st1" d="M303.9,154.1c0,0-49.4-44.7-20.4-52.9C312.5,93,303.9,154.1,303.9,154.1z"/>
	<path id="eE712PWqkp427" class="st0" d="M314.1,212.5c3.2,24.7,4.5,49.6,3.8,74.4c-0.3,8.1-0.8,15.4-1.4,21.7"/>
	<path id="eE712PWqkp428" class="st0" d="M303.9,154.1c4.4,19.8,7.6,38,9.8,54.8"/>
	<line id="eE712PWqkp429" class="st0" x1="303.6" y1="382.2" x2="295.8" y2="426"/>
	<line id="eE712PWqkp430" class="st0" x1="286.7" y1="477.2" x2="280" y2="515.5"/>
	<path id="eE712PWqkp431" class="st0" d="M258.4,728.7c-0.9-32.9,0.2-70.6,4.3-113.9c0.2-1.9,0.4-3.8,0.7-5.7"/>
	<path id="eE712PWqkp432" class="st0" d="M264.7,801.9c14.8,97.9,49.4,128.8,49.4,128.8"/>
	<path id="eE712PWqkp433" class="st2" d="M288.1,119.7c1.5,0.6,2.9,1.5,4.1,2.6c1.2,1.1,2.3,2.3,3.3,3.7c1.9,2.7,3.5,5.6,4.7,8.7
		c0.3,0.8,0.6,1.5,0.9,2.3l0.8,2.4c0.4,1.6,0.9,3.2,1.3,4.8s0.7,3.2,1,4.9l0.7,4.9l-2,0.2l-0.5-4.8c-0.2-1.6-0.5-3.2-0.7-4.8
		c-0.2-1.6-0.7-3.2-1-4.8l-0.7-2.3c-0.2-0.8-0.4-1.6-0.7-2.3c-1-3.1-2.4-6-4.2-8.8c-0.9-1.4-1.9-2.6-3.1-3.8
		C291,121.4,289.6,120.4,288.1,119.7z"/>
	<path id="eE712PWqkp434" class="st1" d="M314.1,212.5c-0.1-1.1-0.3-2.1-0.4-3.2l-0.1-0.5c0,0,29.3-45.1,46.9-25.8
		C360.6,183,374,202.1,314.1,212.5z"/>
	<path id="eE712PWqkp435" class="st2" d="M343.2,189.8c-2.7,1.4-5.3,2.9-7.8,4.5s-5.1,3.2-7.5,5s-4.8,3.6-7,5.6
		c-2.2,2-4.3,4.1-6.2,6.4l-1.5-1.3c2.1-2.3,4.3-4.3,6.7-6.2c2.4-1.9,4.9-3.6,7.4-5.3c2.5-1.6,5.2-3.1,7.8-4.6S340.4,191,343.2,189.8
		z"/>
	<path id="eE712PWqkp436" class="st3" d="M317.9,287c0,0-50.3-21.1-41.5-35.6C285.2,236.9,317.9,287,317.9,287z"/>
	<polygon id="eE712PWqkp437" class="st2" points="289.3,263.3 318.6,286.2 317.3,287.7 	"/>
	<path id="eE712PWqkp438" class="st3" d="M314.8,322.6c0.1-0.7,0.2-1.4,0.3-2.2c0.5-3.5,1-7.4,1.4-11.7c0,0,17.5-25.3,33.8-13.7
		C350.4,295,363.5,304.1,314.8,322.6z"/>
	<path id="eE712PWqkp439" class="st2" d="M336.6,301c-1.2,0.2-2.4,0.6-3.5,1.2c-0.6,0.2-1.1,0.6-1.6,0.9c-0.5,0.3-1,0.6-1.5,1
		c-2,1.4-3.9,3-5.5,4.8c-1.7,1.8-3.2,3.7-4.6,5.7l-2,3.1l-1.9,3.2l-1.7-1l2.1-3.1l2.3-3c1.6-2,3.3-3.8,5.1-5.5
		c1.8-1.7,3.8-3.3,5.9-4.6c0.5-0.3,1.1-0.6,1.6-0.9c0.5-0.3,1.1-0.5,1.7-0.8C334.2,301.5,335.4,301.2,336.6,301z"/>
	<path id="eE712PWqkp440" class="st3" d="M304.1,378.9l-0.2,1.4l-0.3,1.8c0,0-49.1-15.5-38.3-30.2
		C276.1,337.2,304.1,378.9,304.1,378.9z"/>
	<polygon id="eE712PWqkp441" class="st2" points="303.3,381.1 277.3,362.2 304.5,379.5 	"/>
	<path id="eE712PWqkp442" class="st3" d="M336.6,402.4c-0.9,5.2-8.1,14.7-41.4,26.8l0.2-1l0.4-2.2c0,0,15.3-37.6,37.6-29
		C335.6,397.7,337,400,336.6,402.4z"/>
	<path id="eE712PWqkp443" class="st2" d="M320.3,405.7c-2.6,1.2-5,2.6-7.3,4.3c-2.3,1.7-4.4,3.5-6.4,5.5c-2,2-3.8,4.1-5.6,6.3
		c-0.9,1.1-1.6,2.3-2.5,3.4c-0.8,1.1-1.5,2.4-2.3,3.5l-1.7-1.1c0.9-1.2,1.7-2.3,2.5-3.5s1.8-2.3,2.7-3.3c1.9-2.2,3.9-4.2,6-6.1
		c2.1-1.9,4.4-3.6,6.8-5.2C315.1,408,317.6,406.7,320.3,405.7z"/>
	<path id="eE712PWqkp444" class="st3" d="M287.2,474.6l-0.3,1.5l-0.2,1.1c-12.2,4.3-39.8-19.9-32.5-30.9S287.2,474.6,287.2,474.6z"
		/>
	<path id="eE712PWqkp445" class="st2" d="M266,458.8c3.3,3.1,6.7,6.2,10.2,9c1.8,1.4,3.5,2.8,5.4,4.1c1.8,1.3,3.7,2.4,5.7,3.3
		l-0.8,1.8c-2.1-1.1-4-2.4-5.8-3.9c-1.8-1.4-3.5-3-5.2-4.5C272.2,465.5,269,462.2,266,458.8z"/>
	<path id="eE712PWqkp446" class="st3" d="M316.6,515.6c-1.7,0.7-3.4,1-5.2,1h-16.1c-1.6,0-3.1-0.1-4.7-0.3
		c-3.1-0.4-9.6-0.8-11.3,3.2l0.5-2.7l0.2-1.3l0,0c0.4-0.8,16-29.3,38.1-21.7c2.8,0.9,5.2,2.8,6.9,5.2
		C327.7,503.3,329.4,510.3,316.6,515.6z"/>
	<path id="eE712PWqkp447" class="st2" d="M313.7,503.5c-3.1,0.1-6.2,0.4-9.3,1.1c-3,0.7-6,1.6-8.9,2.8c-1.4,0.6-2.8,1.3-4.2,2
		s-2.7,1.5-3.9,2.4c-2.5,1.7-4.9,3.7-7,5.9l-1.4-1.4c2.3-2.2,4.9-4.1,7.6-5.8c1.4-0.8,2.7-1.6,4.2-2.3c1.5-0.6,2.9-1.3,4.4-1.8
		c3-1.1,6-1.8,9.1-2.3C307.4,503.6,310.6,503.3,313.7,503.5z"/>
	<path id="eE712PWqkp448" class="st3" d="M269.1,576.7c-7.7-0.8-52.1-30.1-39.2-41.4C242.6,524.2,268.4,575.2,269.1,576.7
		L269.1,576.7z"/>
	<path id="eE712PWqkp449" class="st2" d="M241.4,551.4c2.7,1.6,5.3,3.3,7.9,5.2c2.6,1.8,5.1,3.8,7.5,5.8c2.4,2,4.7,4.2,6.9,6.5
		c2.2,2.3,4.3,4.7,6.2,7.3l-1.7,1.1c-1.7-2.6-3.6-5.1-5.6-7.4c-2.1-2.4-4.2-4.6-6.5-6.8c-2.3-2.1-4.6-4.2-7.1-6.2
		C246.6,555,244.1,553.1,241.4,551.4z"/>
	<path id="eE712PWqkp450" class="st3" d="M316.7,587.5c-0.1,4.2-3.1,10.2-16.1,15.6c-2.3,1-4.8,1.7-7.3,2l-29.8,4.1l0,0
		c0.7-1.1,28.4-43.3,49.4-28.9C315.2,581.9,316.7,584.6,316.7,587.5z"/>
	<polygon id="eE712PWqkp451" class="st2" points="263.4,609.1 263.4,610.1 263.4,608.1 	"/>
	<path id="eE712PWqkp452" class="st2" d="M263.4,609.1l3.6-3.3l3.7-3.2c2.5-2.1,5.1-4.1,7.9-5.9c2.7-1.9,5.5-3.5,8.5-5
		c1.5-0.7,3-1.4,4.6-2c0.8-0.3,1.6-0.5,2.4-0.8c0.8-0.2,1.7-0.4,2.6-0.5l0.1,2c-0.8,0.1-1.5,0.2-2.2,0.4c-0.8,0.2-1.5,0.4-2.3,0.6
		c-1.5,0.5-3,1-4.5,1.7c-3,1.3-5.8,2.8-8.6,4.5c-2.8,1.7-5.5,3.5-8.1,5.5l-3.9,3L263.4,609.1z"/>
	<path id="eE712PWqkp453" class="st3" d="M258.4,684c-8.2,0.6-16.5-0.3-24.3-2.9c-2.2-0.7-4.3-1.9-6.1-3.3
		c-5.7-4.6-18-16.1-12.5-24.7C222.6,642.1,258.4,684,258.4,684z"/>
	<path id="eE712PWqkp454" class="st2" d="M230.4,668.9c2.1,1.7,4.3,3.2,6.5,4.7c2.2,1.5,4.6,2.8,6.9,4c2.4,1.2,4.8,2.3,7.3,3.2
		c2.5,0.9,5,1.7,7.6,2.2l-0.5,1.9c-2.6-0.7-5.2-1.7-7.7-2.8c-2.5-1.1-4.9-2.4-7.2-3.7c-2.3-1.4-4.6-2.9-6.7-4.5
		C234.4,672.4,232.3,670.7,230.4,668.9z"/>
	<path id="eE712PWqkp455" class="st3" d="M283.3,714.5c0,0-5.2,7.7-24.9,14.3l0,0l0,0c0.4-1.4,11.2-42.3,26.9-41.6
		c1.8,0.1,3.4,1.1,4.4,2.6C292.2,693.6,293.3,702.2,283.3,714.5z"/>
	<polygon id="eE712PWqkp456" class="st4" points="258.4,728.8 258.4,728.8 258.4,728.8 	"/>
	<polygon id="eE712PWqkp457" class="st2" points="282.3,700.5 258.4,728.7 280.7,699.3 	"/>
	<polygon id="eE712PWqkp458" class="st2" points="259.1,729.5 258.4,728.8 257.7,728 	"/>
	<path id="eE712PWqkp459" class="st3" d="M260.8,769.7c-9.6,5.7-22.3,0-22.3,0s-28.9-15-22.3-27.5
		C222.8,729.8,260.8,769.7,260.8,769.7z"/>
	<path id="eE712PWqkp460" class="st2" d="M236.2,758.8c1.6,1.7,3.4,3.1,5.3,4.4c1.9,1.3,3.9,2.3,6.1,3.2c2.1,0.9,4.3,1.5,6.5,1.9
		c2.2,0.4,4.5,0.6,6.7,0.5v2c-2.4-0.1-4.7-0.5-7-1.1c-2.3-0.6-4.5-1.4-6.6-2.4c-2.1-1-4.1-2.2-5.9-3.7
		C239.4,762.2,237.7,760.6,236.2,758.8z"/>
	<path id="eE712PWqkp461" class="st3" d="M264.7,801.9L264.7,801.9c0.5-1.2,21.1-49.1,44.5-31.4
		C332.6,788.1,265.6,801.7,264.7,801.9z"/>
	<path id="eE712PWqkp462" class="st4" d="M264.7,801.9L264.7,801.9z"/>
	<path id="eE712PWqkp463" class="st2" d="M264,801.2c2.5-2.2,5-4.2,7.6-6.1c2.6-2,5.2-3.8,7.9-5.6c2.7-1.8,5.4-3.5,8.3-5
		c2.8-1.5,5.7-3,8.6-4.4c-2.9,1.5-5.7,3.1-8.4,4.8c-2.7,1.7-5.4,3.5-7.9,5.4c-2.6,1.9-5.1,3.9-7.6,6c-2.5,2.1-4.9,4.2-7.1,6.4
		L264,801.2z"/>
	<polygon id="eE712PWqkp464" class="st2" points="264.7,802.9 264.7,801.9 264.7,800.9 	"/>
</g>
<g id="eE712PWqkp465" transform="matrix(1 0 0 1 0 0.000004)">
	<path id="eE712PWqkp466" class="st9" d="M379.6,639.1L369,628.4c-3-3-5.4-6.6-7-10.5c-2.5-5.7-4.5-11.6-6.1-17.6l0,0
		c-2.7-10.7-3.2-21.2,4.9-23C377.8,573.5,379.6,639.1,379.6,639.1z"/>
	<path id="eE712PWqkp467_00000079469967556768351190000003201135213350893701_" class="st4" d="M379.6,639.1"/>
	<path id="eE712PWqkp469" class="st9" d="M379.6,639.1c0,0-56.2,20.9-62.9-3.2c-4.3-15.5,22.7-9.8,42.7-3.7l0,0
		C370.6,635.5,379.6,639.1,379.6,639.1z"/>
	<path id="eE712PWqkp470" class="st9" d="M379.6,639.1c0,0-9-3.5-20.2-6.9l0,0c-1-0.4-36.9-15.6-28.2-38.9c1.4-3.8,5-6.4,9.1-6.4
		c4.3,0,10.1,2.8,15.7,13.4l0,0c1.6,6,3.6,11.9,6.1,17.6c1.6,3.9,4,7.5,7,10.5L379.6,639.1z"/>
</g>
<g id="eE712PWqkp471" transform="matrix(1 0 0 1 0.000009 0.000013)">
	<path id="eE712PWqkp472" class="st4" d="M1139.1,465.4c-1.9-11.7-3.3-23.5-4.2-35.2c-0.1-0.9-0.1-1.8-0.2-2.7
		c-1.2-17.8-1.4-35.7-0.8-53.5"/>
	<path id="eE712PWqkp473" class="st3" d="M1199.6,81.5c0,0-35.8-55.5-8.4-79.3c1.5-1.3,3.6-1.5,5.4-0.5
		C1204.6,6.5,1225.3,25.2,1199.6,81.5z"/>
	<path id="eE712PWqkp474" class="st4" d="M1166.7,200.1c6.1-18.8,11.4-36.8,15.9-52.9c10.9-38.5,17-65.8,17-65.8"/>
	<path id="eE712PWqkp475" class="st4" d="M1166.7,200.2c-3.6,11.2-7.5,22.7-11.6,34.3c-3.1,8.5-5.5,17.3-7.4,26.2l-0.7,3.5
		c-2.3,11.4-5.2,27.4-7.7,46.4c-2.4,18.5-4.5,39.9-5.3,62.7"/>
	<path id="eE712PWqkp476" class="st4" d="M1153,518.8c-6-16.5-10.5-33.4-13.4-50.7"/>
	<polygon id="eE712PWqkp477" class="st2" points="1198.7,81.5 1196.3,29.2 1200.6,81.4 	"/>
	<path id="eE712PWqkp478" class="st3" d="M1243.4,121.1c-2.6,5.9-13.7,19.2-60.8,26.1l0,0c0.8-1.2,29.7-45.8,59.3-30.3
		C1243.5,117.8,1244.1,119.6,1243.4,121.1z"/>
	<path id="eE712PWqkp479" class="st2" d="M1182.1,146.5c3.4-2.4,6.8-4.7,10.3-6.9s7.1-4.2,10.8-6.1c3.7-1.9,7.4-3.6,11.3-5.1
		c3.8-1.5,7.9-2.5,12-2.9c-4.1,0.6-8.1,1.7-11.8,3.4c-3.8,1.6-7.5,3.4-11,5.5c-3.6,2-7.1,4.2-10.4,6.5c-3.4,2.3-6.7,4.7-9.9,7.2
		L1182.1,146.5z"/>
	<path id="eE712PWqkp480" class="st3" d="M1166.7,200.1L1166.7,200.1c-48.6-25.8-41.6-53.4-38.6-60.7c0.5-1.1,1.7-1.8,2.9-1.4
		C1157.9,145.5,1166.5,198.9,1166.7,200.1L1166.7,200.1z"/>
	<path id="eE712PWqkp481" class="st2" d="M1137.6,157.8c3.4,2.6,6.6,5.7,9.3,9c2.8,3.3,5.4,6.8,7.8,10.4c2.4,3.6,4.7,7.3,6.8,11.1
		c2.1,3.8,4.2,7.6,6.1,11.5l-1.8,0.8c-1.7-3.9-3.6-7.8-5.6-11.6c-2-3.8-4.1-7.6-6.4-11.2c-2.2-3.7-4.7-7.2-7.3-10.6
		C1143.9,163.7,1140.9,160.5,1137.6,157.8z"/>
	<path id="eE712PWqkp482" class="st3" d="M1147,264.1L1147,264.1c1.3-1.5,48.7-57.7,65.1-39.1C1228.7,243.8,1177.8,260.7,1147,264.1
		z"/>
	<path id="eE712PWqkp483" class="st2" d="M1146.4,263.4c3.5-2.8,7-5.5,10.6-8.1c3.6-2.6,7.3-5.1,11.1-7.4s7.6-4.5,11.6-6.5
		c4-2,8.1-3.7,12.3-5.1c-4.1,1.6-8.1,3.4-12,5.6c-3.9,2.1-7.6,4.5-11.3,6.9c-3.7,2.5-7.2,5.1-10.7,7.8c-3.5,2.7-6.9,5.5-10.2,8.4
		L1146.4,263.4z"/>
	<path id="eE712PWqkp484" class="st3" d="M1139.3,310.5c-25-2.5-55-42.9-37.1-49.6S1139.3,310.5,1139.3,310.5z"/>
	<path id="eE712PWqkp485" class="st2" d="M1138.8,311.4c-2.9-2-5.8-4.2-8.5-6.5c-2.7-2.3-5.3-4.7-7.8-7.3c-2.5-2.6-4.7-5.4-6.6-8.4
		c-2-3-3.2-6.4-3.6-9.9c0.5,3.5,1.9,6.8,4,9.6c2,2.9,4.3,5.5,6.9,7.9c2.5,2.4,5.2,4.7,8,6.8c2.8,2.1,5.7,4.1,8.6,5.9L1138.8,311.4z"
		/>
	<path id="eE712PWqkp486" class="st3" d="M1134,374c0-0.1,0-0.2,0-0.3l0,0c0-0.2,0-0.3,0-0.5l0,0c2.5-5.8,17.8-38.6,39-39.7
		c2.7-0.2,5.1,1.4,6.1,3.9C1184.4,352.2,1156.9,369.3,1134,374z"/>
	<path id="eE712PWqkp487" class="st4" d="M1134,373.2c0,0.2,0,0.3,0,0.5l0,0c0,0.1,0,0.2,0,0.3l-0.4,0.1
		C1133.6,374.1,1133.8,373.8,1134,373.2z"/>
	<polygon id="eE712PWqkp488" class="st2" points="1162,346.9 1134.7,374.5 1133.3,373 	"/>
	<polygon id="eE712PWqkp489" class="st2" points="1134.7,374.5 1133.6,374.1 1133.3,373 	"/>
	<path id="eE712PWqkp490" class="st3" d="M1134.8,428.6c-10.7,1.1-55.9-34.2-37.9-45.2C1114.9,372.6,1134.5,427.7,1134.8,428.6
		L1134.8,428.6z"/>
	<path id="eE712PWqkp491" class="st2" d="M1110.5,401.8c1.4,2.7,3.1,5.2,5.1,7.5c2,2.3,4.1,4.5,6.2,6.6c4.4,4.2,8.9,8.2,13.6,12
		l-1.3,1.5c-4.5-4.1-8.9-8.3-13-12.8c-2.1-2.2-4-4.5-5.9-7C1113.3,407.2,1111.7,404.6,1110.5,401.8z"/>
	<path id="eE712PWqkp492" class="st3" d="M1139.6,468.1c-0.1-0.5-0.2-1-0.3-1.5s-0.1-0.8-0.2-1.2c0,0,8.5-34.5,34.6-37.3
		c0.8-0.1,1.6,0.2,2.2,0.7c0.6,0.5,1,1.3,1,2.1C1177.3,436.9,1173.5,451,1139.6,468.1z"/>
	<path id="eE712PWqkp493" class="st2" d="M1138.5,466.1c1.6-2.6,3.4-5,5.3-7.4c1.9-2.4,3.8-4.6,5.9-6.8c2-2.2,4.2-4.3,6.4-6.3
		s4.6-3.9,7-5.7c-2.3,1.9-4.6,3.9-6.6,6c-2.1,2.1-4.1,4.3-6,6.6c-1.9,2.3-3.7,4.6-5.4,7.1c-1.7,2.4-3.3,4.9-4.7,7.5L1138.5,466.1z"
		/>
	<path id="eE712PWqkp494" class="st3" d="M1226.6,790.9c-0.8,7.5-7.3,25.6-44.8,45.4c0,0,5.9-45.8,41.3-48.9
		c0.9-0.1,1.9,0.2,2.5,0.9S1226.7,790,1226.6,790.9z"/>
	<path id="eE712PWqkp495" class="st2" d="M1214.4,801.2c-3.3,2.3-6.4,4.8-9.3,7.6c-2.9,2.7-5.7,5.6-8.3,8.6c-2.6,3-5.1,6.2-7.4,9.4
		c-1.2,1.6-2.3,3.3-3.4,4.9c-1.1,1.7-2.1,3.4-3.2,5.1l-1.7-1c1.1-1.7,2.2-3.4,3.4-5s2.3-3.3,3.6-4.8c2.4-3.2,5.1-6.2,7.9-9.2
		c2.7-3,5.7-5.7,8.8-8.3C1207.7,805.8,1211,803.4,1214.4,801.2z"/>
	<path id="eE712PWqkp496" class="st3" d="M1189,884.1c0,0-65.7-6.1-54.5-25.5C1145.5,839.5,1187.8,883,1189,884.1L1189,884.1z"/>
	<path id="eE712PWqkp497" class="st2" d="M1152.1,867.4c3.4,0.3,6.7,1,10,2c3.3,1,6.5,2.3,9.6,3.7c3.1,1.4,6.2,3,9.1,4.7
		c3,1.7,5.9,3.5,8.7,5.5l-1.2,1.6c-2.7-2.1-5.5-4-8.3-5.8c-2.9-1.8-5.8-3.6-8.8-5.1c-3-1.6-6.1-2.9-9.3-4.1
		C1158.7,868.7,1155.4,867.9,1152.1,867.4z"/>
	<path id="eE712PWqkp498" class="st2" d="M-144.2-222.6"/>
	<path id="eE712PWqkp499" class="st4" d="M1152.2,516.6c0,0,37.4,103.9,19.4,229.7c-3.9,26.7-1.9,53.9,5.9,79.8
		c8.3,27.4,17.1,66,16.4,104.7"/>
	<path id="eE712PWqkp4100" class="st3" d="M1176.5,683.1c0,0,9.3-31.3,35.5-34.1c0.8-0.1,1.6,0.2,2.2,0.7c0.6,0.5,1,1.3,1,2.1
		C1215.6,657.7,1210.4,665.9,1176.5,683.1"/>
	<path id="eE712PWqkp4101" class="st2" d="M1175.8,681.7c2-1.9,4-3.8,6.1-5.6s4.2-3.6,6.3-5.3c4.3-3.5,8.6-6.8,13.1-10
		c-4.2,3.5-8.4,7.1-12.4,10.8c-2,1.9-4,3.8-5.9,5.7c-1.9,1.9-3.9,3.9-5.7,5.9L1175.8,681.7z"/>
	<path id="eE712PWqkp4102" class="st3" d="M1170,763.9c-10.6,1.8-58-30.6-40.7-42.7S1169.6,763,1170,763.9"/>
	<path id="eE712PWqkp4103" class="st2" d="M1144,738.8c1.5,2.6,3.4,5,5.6,7.1c2.1,2.1,4.4,4.2,6.7,6.1c4.6,3.9,9.4,7.6,14.3,11.1
		l-1.2,1.6c-4.8-3.8-9.4-7.8-13.8-12c-2.2-2.1-4.3-4.3-6.3-6.6C1147.1,743.9,1145.4,741.5,1144,738.8z"/>
	<path id="eE712PWqkp4104" class="st3" d="M1176.5,654.2c0,0-32.6-2.5-40.9-27.4c-0.3-0.8-0.2-1.6,0.2-2.4c0.4-0.7,1.1-1.3,1.8-1.5
		C1143.4,621.4,1152.5,624.7,1176.5,654.2"/>
	<path id="eE712PWqkp4105" class="st2" d="M1175.3,655.2c-2.3-1.5-4.5-3.1-6.8-4.8s-4.4-3.3-6.6-5c-4.3-3.4-8.5-7-12.6-10.6
		c4.3,3.4,8.7,6.7,13.2,9.8c2.3,1.6,4.5,3.1,6.8,4.6c2.3,1.5,4.6,3,7,4.3L1175.3,655.2z"/>
	<path id="eE712PWqkp4106" class="st3" d="M1143.4,488.9c0,0-20.9,25.1-46,17.4c-0.8-0.2-1.4-0.8-1.8-1.5c-0.4-0.7-0.4-1.6-0.1-2.3
		C1097.6,496.8,1105.5,491.3,1143.4,488.9"/>
	<path id="eE712PWqkp4107" class="st2" d="M1143.5,490.4c-2.6,1-5.2,1.9-7.8,2.7s-5.2,1.7-7.9,2.4c-5.3,1.5-10.6,2.9-16,4.1
		c5.3-1.5,10.5-3.2,15.7-5c2.6-0.9,5.1-1.9,7.7-2.9s5.1-2,7.6-3.2L1143.5,490.4z"/>
	<path id="eE712PWqkp4108" class="st3" d="M1168.3,578.9L1168.3,578.9c1.3-1.5,48.7-57.7,65.1-39.1
		C1249.9,558.6,1199.1,575.5,1168.3,578.9z"/>
	<path id="eE712PWqkp4109" class="st2" d="M1167.6,578.1c3.4-2.8,7-5.5,10.6-8.1c3.6-2.6,7.3-5.1,11.1-7.4c3.8-2.3,7.6-4.5,11.6-6.5
		c4-2,8.1-3.7,12.3-5.1c-4.1,1.6-8.1,3.4-12,5.5c-3.9,2.1-7.6,4.5-11.3,6.9c-3.7,2.5-7.2,5.1-10.7,7.8s-6.9,5.5-10.2,8.4
		L1167.6,578.1z"/>
</g>
<g id="eE712PWqkp4110" transform="matrix(1 0 0 1 0.000006 0.000003)">
	<path id="eE712PWqkp4111" class="st6" d="M1068.5,409.9L1068.5,409.9c-7.1,11.2-17.5,21.9-27.2,26.5c0,0,1.2-19.2,5.8-36.3l0,0
		c4.1-15.1,10.8-28.7,21.5-26C1082,377.5,1078.4,394.3,1068.5,409.9z"/>
	<path id="eE712PWqkp4112_00000019662898549791031020000000015799749416948913_" class="st4" d="M1041.2,436.5"/>
	<path id="eE712PWqkp4113" class="st6" d="M1047.1,400.2L1047.1,400.2c-4.6,17.1-5.8,36.3-5.8,36.3s-37-43-18.4-59.7
		C1041.2,360.2,1046.9,399.4,1047.1,400.2z"/>
	<path id="eE712PWqkp4114" class="st6" d="M1041.2,436.5c9.7-4.7,20.1-15.3,27.2-26.5l0,0c0.8-0.4,39.6-22.3,42.5,2.2
		C1112.1,429.4,1041.2,436.5,1041.2,436.5z"/>
</g>
<g id="eE712PWqkp4115" transform="matrix(1 0 0 1 0 0.000017)" class="st10">
	<polyline id="eE712PWqkp4116" class="st11" points="1300.5,480.9 1178.9,790.5 1043.2,711.5 1185.6,445.1 	"/>
	<path id="eE712PWqkp4117" class="st12" d="M1300.5,480.9L1300.5,480.9"/>
	<path id="eE712PWqkp4118" class="st13" d="M1331.4,351l-36.8,112.6l-5.1,15.5c-18.1-3.5-54.7-11.6-82-22.8c0.7,0.2,4.9,1.4-1.2-8.2
		c-1.4-2.2-3.2-6.5-5-11.7c-6.7-19.1-14.7-51.9-14.7-51.9s-2.8-31.9,8.8-37.6c11.6-5.8,13.6,11.8,13.6,11.8l9.2,35.7
		c0,0,25.7-101.1,37.7-97c10.5,3.5-0.1,53.2-3,65.4c3.4-14,19.4-76.6,35-72.7c11.7,2.9,1.9,37.4-6,60.3l-7.5,20
		c0.6-1.5,3.8-9.6,7.5-20l10.2-27.4c0,0,7.3-25.4,21-21.4c12.5,3.7-10.9,65.4-15,76l13.3-32.6c0,0,5.3-16.8,16.2-14.4
		C1338.5,333,1331.4,351,1331.4,351z"/>
	<path id="eE712PWqkp4119" class="st14" d="M1252.7,364l0.1-0.4c0-0.1,0.1-0.2,0.1-0.3c0-0.2,0.1-0.4,0.1-0.5"/>
	<path id="eE712PWqkp4120" class="st14" d="M1252.4,365.4L1252.4,365.4v-0.1c0-0.1,0.1-0.4,0.2-0.6l0,0c0-0.1,0-0.2,0.1-0.3"/>
	<path id="eE712PWqkp4121" class="st14" d="M1252.7,364l0.1-0.4c0-0.1,0.1-0.2,0.1-0.3c0-0.2,0.1-0.4,0.1-0.5"/>
	<path id="eE712PWqkp4122" class="st14" d="M1274.5,370.6L1274.5,370.6c0-0.1,0-0.1,0-0.1"/>
	<path id="eE712PWqkp4123" class="st14" d="M1297.7,379.1L1297.7,379.1V379l0.2-0.4"/>
	<line id="eE712PWqkp4124" class="st14" x1="1289.5" y1="479.1" x2="1289.5" y2="479.1"/>
	<path id="eE712PWqkp4125" class="st15" d="M1300.5,480.9L1300.5,480.9c-0.3,0.1-4.4-0.6-11-1.8l5.1-15.5
		C1305.1,467.8,1300.5,480.9,1300.5,480.9z"/>
	<line id="eE712PWqkp4126" class="st14" x1="1294.6" y1="463.6" x2="1294.6" y2="463.6"/>
	<path id="eE712PWqkp4127" class="st15" d="M1207.5,456.3L1207.5,456.3c-7.7-3-15-6.7-21.8-11.1c-6.9-4.4,3-12.9,15.6-8.7
		c1.8,5.3,3.6,9.5,5,11.7C1212.4,457.7,1208.1,456.5,1207.5,456.3z"/>
	<path id="eE712PWqkp4128" class="st16" d="M1233.4,413.4c1,2.6,2.3,5.2,3.7,7.6c1.4,2.4,3,4.7,4.8,6.9c0.9,1.1,1.7,2.2,2.7,3.2
		c0.9,1,1.9,2.1,2.8,3.1c0.5,0.5,1,1,1.5,1.5l1.5,1.5c1,1,2,2,3,3c-1.2-0.7-2.5-1.5-3.7-2.3s-2.3-1.7-3.4-2.7c-2.2-1.9-4.2-4-6-6.3
		c-1.8-2.3-3.3-4.8-4.6-7.4C1234.5,419.1,1233.7,416.2,1233.4,413.4z"/>
</g>
<g id="eE712PWqkp4129" class="st10">
	<path id="eE712PWqkp4130" class="st11" d="M1178.6,790.5c-5.1,1.5-84.2,22.6-251.3-63.5c24.5,103.4,33.8,203.7,33.8,203.7H427.9
		c0,0-28.6-111.4-0.8-229.8l0,0c3.9-16.9,9-33.5,15.2-49.7c42.2-119.1,48.5-156.2,115.5-196.4l0.1,0.3c14.8-8.9,32.6-18.1,54.3-28.3
		l2.1-1c0,0.1,0.1,0.1,0.1,0.1l0,0c4.6,2.4,114.3,58.3,192.2,2.1c6.6,4.8,13.7,8.8,21.3,11.8l1.7,0.7c9.1,3.6,18.8,7.9,28.8,12.5
		l0,0c25.2,11.6,53.2,25.9,75.7,37.8c14.5,7.7,26.8,14.5,34.7,18.8c6.8,3.7,13.1,8.1,19,13.1l79.2,67.2l30.3,25.7"/>
	<path id="eE712PWqkp4131" class="st11" d="M-144.2-222.6"/>
	<line id="eE712PWqkp4132" class="st17" x1="1103" y1="620.5" x2="1097.4" y2="615.7"/>
	<path id="eE712PWqkp4133" class="st17" d="M829.7,440.6c8.8,3.5,18.6,7.8,28.8,12.5"/>
	<path id="eE712PWqkp4134" class="st17" d="M557.7,454.9c14.8-8.9,32.6-17.9,54.4-28"/>
	<path id="eE712PWqkp4135" class="st17" d="M1178.9,790.5l-0.3,0.1"/>
	<path id="eE712PWqkp4136" class="st17" d="M-144.2-222.6"/>
	<path id="eE712PWqkp4137" class="st13" d="M707.3,205.2c0,0-1.6-24.7-40.7-25.7c-39-1-44.4,31.3-44.4,31.3s0,39.6,48,39.5
		C717,250.4,707.3,205.2,707.3,205.2z M669.4,226.4h-0.6c-0.4,0-0.8,0-1.2,0c-29.1-1-32.8-15.6-32.8-15.6s0.8-1,2.3-2.5l0,0
		c2.4-2.4,4.9-4.6,7.6-6.6c2.7-2,5.6-3.8,8.7-5.3c2.7-1.4,5.6-2.5,8.6-3.2c2.3-0.6,4.7-1,7.2-1.1c5.2-0.2,10.3,1.1,14.8,3.6
		c2.3,1.2,4.4,2.7,6.4,4.3l0,0c0.8,0.6,1.5,1.3,2.2,1.9l1,1c0.3,0.3,0.7,0.7,1,1c1.2,1.3,2.3,2.5,3.3,3.7l0,0
		c1.5,1.8,2.9,3.6,4.1,5.6S698,226.7,669.4,226.4z"/>
	<path id="eE712PWqkp4138" class="st13" d="M831.5,201.5l-2.2,11.1l0,0l-5.1,26.2l-4.9,25.3c0,0-5.5,67.8-57.1,78
		c-52.6,18.6-95.3-8.8-95.6-8.6c-39.1-25-55.4-67.2-61.9-92.1c-0.5-2-1-3.9-1.4-5.9c-1.8-8.6-2.6-17.5-2.6-26.3c0-2.2,0-4.6,0.1-7.1
		l21.5,8.7c0,0,0,39.6,48,39.5c46.8-0.1,37.1-45.2,37.1-45.2s5.4-6.4,12.9-6.6c4-0.1,8.5,1.4,13.2,6.6c0.6,0.6-3.3,36.9,39.8,36
		c30.8-0.7,34.9-21.2,34.8-32.9L831.5,201.5z"/>
	<path id="eE712PWqkp4139" class="st14" d="M565,930.7c0,0-29.6-157,31.8-322.7"/>
	<path id="eE712PWqkp4140" class="st14" d="M890.4,608.1c15,36.1,27.2,77.8,37,119l0,0"/>
	<path id="eE712PWqkp4141" class="st18" d="M707.3,87.9c-9.8,17.3-34,31.1-47.8,38c-5.6,2.8-11.6,4.7-17.7,5.7
		c-13,2.1-38.4,8-39.5,22.4c-0.9,11.4-1.3,32.6-1.5,48.2c0,2.6,0,5-0.1,7.1c0,0-26.7-17.8-31.6,2.9s34.1,23.4,34.1,23.4
		c0.4,2,0.9,3.9,1.4,5.9c6.5,24.9,22.8,67.1,61.9,92.1c-9,47.1-29.4,73.3-41.9,85c-5.5,5.1-9.4,7.5-10.2,7.5l0,0l-0.1-0.1l-2.1,1
		c-21.7,10.1-39.5,19.4-54.3,28.3l-0.1-0.3c-2.5-8.3-52-174.8-4.9-297.1C601,32.3,698.5,29.3,698.5,29.3l0,0
		C699,30.1,721.2,63.3,707.3,87.9z"/>
	<path id="eE712PWqkp4142" class="st18" d="M864.4,320.2c0,0-29.9,90.7-5.9,132.8l0,0c-10-4.6-19.8-8.9-28.8-12.5l-1.7-0.7
		c-12.2-4.8-23.2-12.1-32.4-21.4c-30.4-30.6-34.2-74.7-33.4-76.4c51.6-10.2,57.1-78,57.1-78l4.9-25.3c0,0,45.4-21.3,35-36.7
		c-10.2-15.2-29.5,9.9-29.9,10.5l2.2-11.1l7.5-38.7c0,0-18.3-37.4-51.5-44.1c-60.3-8.2-80.2-30.8-80.2-30.8
		c14-24.6-8.3-57.8-8.8-58.6c1.7,0.2,151.7,23,170.7,128.5C888.3,263.8,864.4,320.2,864.4,320.2z"/>
	<path id="eE712PWqkp4143" class="st16" d="M722.1,303c3.2,0.8,6.5,1,9.8,0.7c3.2-0.3,6.3-1.2,9.2-2.7c2.9-1.5,5.4-3.5,7.6-5.9
		c2.2-2.4,4.2-5.1,6-7.9c-1.1,3.2-2.7,6.2-4.8,8.9c-1.1,1.4-2.3,2.6-3.6,3.7c-1.3,1.1-2.8,2.1-4.3,2.9c-3.1,1.6-6.5,2.4-10,2.5
		C728.5,305.3,725.1,304.5,722.1,303z"/>
	<path id="eE712PWqkp4144" class="st19" d="M693.6,167.2v8.2c0,0-33.5-17.6-63.1,0h-0.4C659.4,141.5,693.6,167.2,693.6,167.2z"/>
	<path id="eE712PWqkp4145" class="st19" d="M-144.2-222.6"/>
	<path id="eE712PWqkp4146" class="st19" d="M809,172.6h-0.4c-29.6-17.6-63.1,0-63.1,0v-8.2C745.5,164.4,779.7,138.7,809,172.6z"/>
	<path id="eE712PWqkp4147" class="st20" d="M806.7,428.1c-77.9,56.2-187.7,0.3-192.2-2.1c0.8,0,4.7-2.4,10.2-7.5
		c0,0,108.1,52,170.9,0C799,422,802.7,425.2,806.7,428.1z"/>
	<path id="eE712PWqkp4148" class="st14" d="M806.7,428.1L806.7,428.1"/>
	<path id="eE712PWqkp4149" class="st13" d="M795.6,418.5c-62.8,52-170.9,0-170.9,0c12.5-11.7,32.9-37.9,41.9-85
		c0.3-0.2,43,27.2,95.6,8.6C761.3,343.8,765.2,387.9,795.6,418.5z"/>
	<path id="eE712PWqkp4150" class="st14" d="M732.3,175.4c0,0-30.8,37-3.5,71.4l-16.9,15.9"/>
	<path id="eE712PWqkp4151" class="st13" d="M787.5,118.7c-60.3-8.2-80.2-30.8-80.2-30.8c-9.8,17.3-34,31.1-47.8,38
		c-5.6,2.8-11.6,4.7-17.7,5.7c-13,2.1-38.4,8-39.5,22.4c-0.9,11.4-1.3,32.6-1.5,48.2l21.5,8.7c0,0,5.3-32.4,44.4-31.3
		c39,1,40.7,25.7,40.7,25.7s5.4-6.4,12.9-6.6c4-0.1,8.5,1.5,13.2,6.6c0,0,4.8-30.5,37-29.8s36.7,25,36.7,25c0.5,2.6,0.8,5.2,0.8,7.9
		l23.6-6.8l7.5-38.7C839,162.8,820.7,125.5,787.5,118.7z M693.6,175.4c0,0-33.5-17.6-63.1,0h-0.4c29.4-33.9,63.5-8.2,63.5-8.2V175.4
		z M808.6,172.6c-29.6-17.6-63.1,0-63.1,0v-8.2c0,0,34.1-25.7,63.5,8.2H808.6z"/>
	<path id="eE712PWqkp4152" class="st13" d="M824.2,238.8l5.1-26.2l0,0c0.5-0.6,19.7-25.8,29.9-10.5
		C869.6,217.5,824.2,238.8,824.2,238.8z"/>
	<path id="eE712PWqkp4153" class="st13" d="M603.3,235.5c0,0-39-2.8-34.1-23.4c4.9-20.7,31.6-2.9,31.6-2.9
		C600.6,218.1,601.5,226.9,603.3,235.5z"/>
	<path id="eE712PWqkp4154" class="st21" d="M701.7,213.1c0,0-3.7,13.6-32.3,13.3h-0.1h-1.1h-0.7c-29.1-1-32.8-15.5-32.8-15.5
		s0.8-1,2.3-2.5l0,0c2.4-2.4,4.9-4.6,7.6-6.6c2.7-2,5.6-3.8,8.7-5.3c2.7-1.4,5.6-2.5,8.6-3.2c2.3-0.6,4.7-1,7.2-1.1
		c5.2-0.2,10.3,1,14.8,3.6c2.3,1.2,4.4,2.7,6.4,4.3l0,0c0.8,0.6,1.5,1.3,2.2,1.9l1,1c0.3,0.3,0.7,0.7,1,1c1.2,1.3,2.3,2.5,3.3,3.7
		l0,0C699.1,209.3,700.5,211.2,701.7,213.1z"/>
	<path id="eE712PWqkp4155" class="st22" d="M685.4,209.8c0,8.9-7.1,16.3-16,16.6h-0.6c-0.4,0-0.8,0-1.2,0c-9-0.7-15.8-8.4-15.3-17.4
		c0.5-9,8-16,17-15.7S685.4,200.8,685.4,209.8L685.4,209.8z"/>
	<path id="eE712PWqkp4156" class="st16" d="M636.3,209c-0.8-0.9-1.4-1.9-1.8-2.9c-0.4-1-0.6-2.2-0.6-3.3c0-1.1,0.2-2.2,0.6-3.2
		c0.3-1,0.8-2,1.4-2.8c-0.9,1.9-1.2,3.9-1,6c0.1,1,0.4,1.9,0.9,2.7c0.5,0.8,1.1,1.5,1.8,2.1L636.3,209z"/>
	<path id="eE712PWqkp4157" class="st16" d="M644.6,192c-0.8,1.5-1.2,3.2-1,4.8c0.1,0.8,0.3,1.6,0.6,2.3c0.3,0.7,0.7,1.4,1.2,2
		l-1.7,1.1c-0.4-0.8-0.7-1.7-0.9-2.6c-0.2-0.9-0.3-1.8-0.2-2.7C642.8,195.1,643.5,193.4,644.6,192z"/>
	<path id="eE712PWqkp4158" class="st16" d="M653.3,188.4c-0.4,1.3-0.6,2.7-0.4,4c0.1,0.6,0.2,1.3,0.4,1.9c0.2,0.6,0.5,1.1,0.9,1.6
		l-1.7,1c-0.3-0.7-0.5-1.5-0.6-2.2c-0.1-0.7-0.1-1.5,0-2.2C652,191,652.5,189.6,653.3,188.4z"/>
	<path id="eE712PWqkp4159" class="st16" d="M661.1,185.7c-0.1,1.3-0.1,2.5,0.1,3.8c0.1,1.1,0.6,2.2,1.4,3l-1.6,1.2
		c-0.7-1.3-1-2.7-0.8-4.2C660.4,188.2,660.7,187,661.1,185.7z"/>
	<path id="eE712PWqkp4160" class="st16" d="M675.1,185.7c0.5,0.4,1,0.9,1.4,1.4c0.5,0.5,0.8,1.1,1.1,1.8c0.3,0.7,0.3,1.5,0.2,2.3
		c-0.2,0.8-0.7,1.5-1.3,2l-1.2-1.6c0.4-0.2,0.8-0.6,1.1-1c0.3-0.5,0.3-1,0.3-1.5C676.4,187.8,675.9,186.7,675.1,185.7z"/>
	<path id="eE712PWqkp4161" class="st16" d="M697.6,198.8c0.8,1.3,1.3,2.8,1.5,4.4c0.1,0.8,0.1,1.6,0,2.4c-0.1,0.8-0.3,1.6-0.6,2.4
		l-1.8-0.9c0.4-0.6,0.7-1.2,0.9-1.8c0.2-0.7,0.4-1.4,0.4-2.1C698.2,201.7,698,200.2,697.6,198.8z"/>
	<polygon id="eE712PWqkp4162" class="st16" points="690.2,200 689.2,200 691.2,200 	"/>
	<path id="eE712PWqkp4163" class="st16" d="M690.8,193.1c0.7,1.1,1.2,2.3,1.3,3.6c0.1,0.7,0,1.4-0.2,2.1c-0.2,0.7-0.6,1.3-1,1.9
		l-1.4-1.4c0.9-0.6,1.5-1.6,1.7-2.6C691.3,195.5,691.2,194.3,690.8,193.1z"/>
	<path id="eE712PWqkp4164" class="st16" d="M683.8,188.4c0.8,1.1,1.4,2.3,1.7,3.6c0.1,0.7,0.1,1.5,0,2.2c-0.2,0.8-0.5,1.5-1,2.1
		l-1.4-1.4c0.4-0.3,0.8-0.7,1-1.2c0.3-0.5,0.4-1.1,0.4-1.6C684.6,190.8,684.3,189.6,683.8,188.4z"/>
	<path id="eE712PWqkp4165" class="st21" d="M800.3,205c0,0-7.3,19.1-30.2,19.2c-23,0.2-31.3-19.2-31.3-19.2c1.1-1.8,2.5-3.4,3.9-4.9
		c2.7-2.8,5.9-5.2,9.4-7.1c2.5-1.4,5.2-2.4,8-3.1c2.4-0.6,4.8-1,7.2-1.2c0.9-0.1,1.8-0.1,2.8-0.1c3,0,6,0.3,8.9,1
		c3.3,0.8,6.4,2,9.3,3.7c3.7,2.2,7,5,9.7,8.4C798.9,202.6,799.7,203.8,800.3,205z"/>
	<path id="eE712PWqkp4166" class="st22" d="M786.7,206.3c0,9.2-7.4,16.6-16.6,16.6c-9.2,0-16.6-7.4-16.6-16.6
		c0-9.2,7.4-16.6,16.6-16.6c4.4,0,8.6,1.7,11.7,4.9C784.9,197.7,786.7,201.9,786.7,206.3z"/>
	<path id="eE712PWqkp4167" class="st13" d="M807.1,200.4c0,0-4.5-24.3-36.7-25s-37,29.8-37,29.8c0.6,0.6-3.3,36.9,39.8,36
		c30.8-0.7,34.9-21.2,34.8-32.9C807.9,205.6,807.6,203,807.1,200.4z M770.1,224.1c-22.9,0.2-31.3-19.2-31.3-19.2
		c1.1-1.8,2.5-3.4,3.9-4.9c2.7-2.8,5.9-5.2,9.4-7.1c2.5-1.4,5.2-2.4,8-3.1c2.4-0.6,4.8-1,7.2-1.2c0.9-0.1,1.9-0.1,2.8-0.1
		c3,0,6,0.3,8.9,1c3.3,0.8,6.4,2,9.3,3.7c3.7,2.2,7,5,9.7,8.4c0.9,1.1,1.6,2.2,2.3,3.4C801.1,206,793,223.9,770.1,224.1L770.1,224.1
		z"/>
	<path id="eE712PWqkp4168" class="st16" d="M802,196.6c-0.9,0.6-1.7,1.4-2.3,2.3c-0.3,0.4-0.5,0.9-0.6,1.4c-0.1,0.4-0.2,0.9-0.1,1.4
		l-2-0.2c0.2-0.6,0.4-1.3,0.8-1.8c0.3-0.5,0.7-1,1.2-1.4C799.9,197.4,800.9,196.9,802,196.6z"/>
	<path id="eE712PWqkp4169" class="st16" d="M796.4,190.6c0.2,1.2,0.2,2.5-0.2,3.7c-0.2,0.6-0.6,1.2-1,1.8c-0.5,0.5-1,1-1.6,1.4
		l-0.8-1.8c0.5-0.1,0.9-0.3,1.4-0.6c0.4-0.3,0.8-0.7,1.1-1.1C795.9,192.9,796.3,191.8,796.4,190.6z"/>
	<path id="eE712PWqkp4170" class="st16" d="M789.2,185.7c0.8,1.1,1.2,2.5,1.1,3.9c0,0.7-0.1,1.4-0.3,2.1c-0.2,0.7-0.5,1.4-0.8,2
		l-1.7-1.1c0.4-0.4,0.8-0.9,1.1-1.4c0.3-0.5,0.6-1.1,0.7-1.7C789.7,188.3,789.6,186.9,789.2,185.7z"/>
	<path id="eE712PWqkp4171" class="st16" d="M778.1,182.6c1,0.9,1.8,2,2.3,3.2c0.3,0.7,0.4,1.4,0.3,2.2c-0.1,0.8-0.5,1.6-1,2.2
		l-1.4-1.5c0.4-0.2,0.7-0.6,0.9-1c0.2-0.5,0.3-1.1,0.2-1.6C779.3,184.8,778.8,183.7,778.1,182.6z"/>
	<polygon id="eE712PWqkp4172" class="st16" points="767.3,182 768.3,188.5 766.3,188.5 	"/>
	<path id="eE712PWqkp4173" class="st16" d="M758.5,182.6c-0.5,1.2-0.5,2.5,0,3.7c0.3,0.5,0.6,1.1,1,1.5c0.2,0.2,0.4,0.4,0.6,0.6
		l0.7,0.6l-1.4,1.4l-0.6-0.9c-0.2-0.3-0.4-0.6-0.5-0.9c-0.3-0.7-0.6-1.3-0.7-2.1C757.3,185.1,757.6,183.7,758.5,182.6z"/>
	<path id="eE712PWqkp4174" class="st16" d="M751.1,188.4c-0.2,0.8-0.1,1.6,0.3,2.2c0.2,0.3,0.4,0.6,0.6,0.8c0.3,0.2,0.5,0.4,0.8,0.6
		l-1.4,1.4c-0.3-0.4-0.5-0.8-0.7-1.3c-0.2-0.4-0.3-0.9-0.3-1.4C750.3,190,750.6,189.1,751.1,188.4z"/>
	<path id="eE712PWqkp4175" class="st16" d="M742.8,192.8c-0.7,1.1-1,2.4-1,3.6c0,0.6,0.2,1.1,0.5,1.6c0.3,0.5,0.7,0.8,1.2,1.1
		l-1.3,1.5c-0.5-0.6-0.9-1.3-1.2-2c-0.2-0.7-0.3-1.5-0.1-2.3c0.1-0.7,0.4-1.4,0.8-2C741.9,193.8,742.3,193.3,742.8,192.8z"/>
	<path id="eE712PWqkp4176" class="st16" d="M-144.2-222.6"/>
	<path id="eE712PWqkp4177" class="st16" d="M-144.2-222.6"/>
	<path id="eE712PWqkp4178" class="st16" d="M-144.2-222.6"/>
	<path id="eE712PWqkp4179" class="st16" d="M-144.2-222.6"/>
	<path id="eE712PWqkp4180" class="st16" d="M-144.2-222.6"/>
</g>
<g id="eE712PWqkp4188" transform="matrix(1 0 0 1 0 0.000004)">
	<path id="eE712PWqkp4189" class="st4" d="M925.6,858.9c27.1-34.3,44.1-72.8,44.1-72.8"/>
	<path id="eE712PWqkp4190" class="st4" d="M900.5,931.7c0,0-1.4-37.2,23.7-71"/>
	<path id="eE712PWqkp4191" class="st3" d="M925.6,858.9c-0.5,0.6-1,1.2-1.4,1.9c0,0-12.3-28.7-4.1-31.5
		C928.2,826.4,925.6,858.9,925.6,858.9z"/>
	<path id="eE712PWqkp4192" class="st4" d="M974.6,765.3L974.6,765.3"/>
	<path id="eE712PWqkp4193" class="st23" d="M974.6,765.2c-2.1,6.8-3.7,13.8-4.9,20.8c-1.2,7-17.1-26.9-6.5-39.9
		c0.7-0.8,1.6-1.4,2.7-1.5s2.1,0.2,3,0.8C971.5,747.7,975,752.9,974.6,765.2z"/>
	<path id="eE712PWqkp4194" class="st23" d="M987.7,767.8c-5.5,6.6-11.5,12.7-18,18.3c1.2-7,2.8-14,4.9-20.8
		c3.8-12.4,10-25,18.2-20.4C1000.2,749,995,758.8,987.7,767.8z"/>
	<path id="eE712PWqkp4195" class="st23" d="M998.6,781.9c-5.8,2.8-12.2,4.2-18.7,4.2h-10.3c6.5-5.6,12.5-11.7,18-18.3
		c5.5-6.6,19.9-13.4,23.6-1.4C1013.4,773.1,1005.8,778.5,998.6,781.9z"/>
</g>
<g id="eE712PWqkp4196" transform="matrix(0.999996 0.002817 -0.002817 0.999996 5.684216 -4.474699)">
	<path id="eE712PWqkp4197" class="st24" d="M1289.4,740.2c-5.7-4.4-10.9-9.5-15.4-15.1l-0.1-0.1c-6.4-8.1-11.2-18.2-6.1-26.9
		c1.5-2.6,4.2-4.1,7.2-4.1c9,0.2,12.7,10.4,14.2,21.1C1290,723.4,1290.1,731.8,1289.4,740.2z"/>
	<path id="eE712PWqkp4198" class="st25" d="M1304.2,828.1c2.8,27.3,4.9,61.3,5.6,102.6"/>
	<path id="eE712PWqkp4199" class="st25" d="M1289.4,740.2c0,0,8.2,25.7,14.3,82.4"/>
	<path id="eE712PWqkp4200" class="st26" d="M1304.2,828.1c0,0-35.3-5.5-27.1-18.2c8.2-12.7,26.5,12.7,26.5,12.7
		C1303.9,824.4,1304.1,826.3,1304.2,828.1z"/>
	<path id="eE712PWqkp4201" class="st24" d="M1289.4,740.2c0.8-8.3,0.7-16.7-0.3-25.1c-0.9-8.3,10.3-24.9,20.7-18.7
		C1320.2,702.6,1289.4,740.2,1289.4,740.2z"/>
	<path id="eE712PWqkp4202" class="st24" d="M1289.4,740.2c0,0-40.9,2-39.3-15.1c1.7-24.3,22.1-2,23.8-0.1l0.1,0.1
		C1278.5,730.7,1283.7,735.8,1289.4,740.2z"/>
</g>
<g id="eE712PWqkp4203" transform="matrix(1 0 0 1 0 0.000003)">
	<path id="eE712PWqkp4204" class="st4" d="M1358.6,804.4c34.1-56.3,75.5-98.2,75.5-98.2"/>
	<path id="eE712PWqkp4205" class="st4" d="M1358.5,804.5L1358.5,804.5c-23.1,38.2-42.9,83.1-44,126.2"/>
	<path id="eE712PWqkp4206" class="st5" d="M1447.8,656.4c-10.9,23.3-13.7,49.9-13.7,49.9s-20.7-47.5-4.6-75.8
		C1445.6,602.3,1447.8,656.4,1447.8,656.4z"/>
	<path id="eE712PWqkp4207" class="st3" d="M1393.2,793.1c-0.2,0.5-4.9,13.1-34.7,11.4l0.1-0.1C1359.8,803,1375.8,783.5,1393.2,793.1
		z"/>
	<path id="eE712PWqkp4208" class="st5" d="M1467.6,668.6L1467.6,668.6c-6.8,11.2-17.3,24-33.5,37.7c0,0,2.9-26.7,13.7-49.9
		c6.2-13.3,15-25.4,27.4-30.9c0.9-0.4,1.9-0.3,2.7,0.2c0.8,0.5,1.4,1.4,1.5,2.3C1480,634.5,1479.3,649.2,1467.6,668.6z"/>
	<path id="eE712PWqkp4209" class="st5" d="M1511.9,665.9c-0.5,3.3-1.9,6.3-4.1,8.8c-19.3,22.7-73.8,31.5-73.8,31.5
		c16.2-13.7,26.7-26.5,33.5-37.7l0,0C1468.5,668,1516.3,637.9,1511.9,665.9z"/>
</g>
<script>
	<![CDATA[
		!function(t,n){"object"==typeof exports&&"undefined"!=typeof module?module.exports=n():"function"==typeof define&&define.amd?define(n):(t="undefined"!=typeof globalThis?globalThis:t||self).__SVGATOR_PLAYER__=n()}(this,(function(){"use strict";function t(n){return(t="function"==typeof Symbol&&"symbol"==typeof Symbol.iterator?function(t){return typeof t}:function(t){return t&&"function"==typeof Symbol&&t.constructor===Symbol&&t!==Symbol.prototype?"symbol":typeof t})(n)}function n(t,n){if(!(t instanceof n))throw new TypeError("Cannot call a class as a function")}function r(t,n){for(var r=0;r<n.length;r++){var e=n[r];e.enumerable=e.enumerable||!1,e.configurable=!0,"value"in e&&(e.writable=!0),Object.defineProperty(t,e.key,e)}}function e(t,n,e){return n&&r(t.prototype,n),e&&r(t,e),t}function i(t){return(i=Object.setPrototypeOf?Object.getPrototypeOf:function(t){return t.__proto__||Object.getPrototypeOf(t)})(t)}function o(t,n){return(o=Object.setPrototypeOf||function(t,n){return t.__proto__=n,t})(t,n)}function u(t,n){return!n||"object"!=typeof n&&"function"!=typeof n?function(t){if(void 0===t)throw new ReferenceError("this hasn't been initialised - super() hasn't been called");return t}(t):n}function a(t){var n=function(){if("undefined"==typeof Reflect||!Reflect.construct)return!1;if(Reflect.construct.sham)return!1;if("function"==typeof Proxy)return!0;try{return Boolean.prototype.valueOf.call(Reflect.construct(Boolean,[],(function(){}))),!0}catch(t){return!1}}();return function(){var r,e=i(t);if(n){var o=i(this).constructor;r=Reflect.construct(e,arguments,o)}else r=e.apply(this,arguments);return u(this,r)}}function l(t,n,r){return(l="undefined"!=typeof Reflect&&Reflect.get?Reflect.get:function(t,n,r){var e=function(t,n){for(;!Object.prototype.hasOwnProperty.call(t,n)&&null!==(t=i(t)););return t}(t,n);if(e){var o=Object.getOwnPropertyDescriptor(e,n);return o.get?o.get.call(r):o.value}})(t,n,r||t)}var f=s(Math.pow(10,-6));function s(t){var n=arguments.length>1&&void 0!==arguments[1]?arguments[1]:6;if(Number.isInteger(t))return t;var r=Math.pow(10,n);return Math.round((+t+Number.EPSILON)*r)/r}function c(t,n){var r=arguments.length>2&&void 0!==arguments[2]?arguments[2]:f;return Math.abs(t-n)<r}var h=Math.PI/180;function v(t){return t}function y(t,n,r){var e=1-r;return 3*r*e*(t*e+n*r)+r*r*r}function d(){var t=arguments.length>0&&void 0!==arguments[0]?arguments[0]:0,n=arguments.length>1&&void 0!==arguments[1]?arguments[1]:0,r=arguments.length>2&&void 0!==arguments[2]?arguments[2]:1,e=arguments.length>3&&void 0!==arguments[3]?arguments[3]:1;return t<0||t>1||r<0||r>1?null:c(t,n)&&c(r,e)?v:function(i){if(i<=0)return t>0?i*n/t:0===n&&r>0?i*e/r:0;if(i>=1)return r<1?1+(i-1)*(e-1)/(r-1):1===r&&t<1?1+(i-1)*(n-1)/(t-1):1;for(var o,u=0,a=1;u<a;){var l=y(t,r,o=(u+a)/2);if(c(i,l))break;l<i?u=o:a=o}return y(n,e,o)}}function g(){return 1}function p(t){return 1===t?1:0}function m(){var t=arguments.length>0&&void 0!==arguments[0]?arguments[0]:1,n=arguments.length>1&&void 0!==arguments[1]?arguments[1]:0;if(1===t){if(0===n)return p;if(1===n)return g}var r=1/t;return function(t){return t>=1?1:(t+=n*r)-t%r}}function b(t,n,r){return t>=.5?r:n}function w(t,n,r){return 0===t||n===r?n:t*(r-n)+n}function x(t,n,r){var e=w(t,n,r);return e<=0?0:e}function k(t,n,r){return 0===t?n:1===t?r:{x:w(t,n.x,r.x),y:w(t,n.y,r.y)}}function A(t,n,r){var e=function(t,n,r){return Math.round(w(t,n,r))}(t,n,r);return e<=0?0:e>=255?255:e}function S(t,n,r){return 0===t?n:1===t?r:{r:A(t,n.r,r.r),g:A(t,n.g,r.g),b:A(t,n.b,r.b),a:w(t,null==n.a?1:n.a,null==r.a?1:r.a)}}function _(t,n,r){if(0===t)return n;if(1===t)return r;var e=n.length;if(e!==r.length)return b(t,n,r);for(var i=[],o=0;o<e;o++)i.push(S(t,n[o],r[o]));return i}function O(t,n){for(var r=[],e=0;e<t;e++)r.push(n);return r}function M(t,n){if(--n<=0)return t;var r=(t=Object.assign([],t)).length;do{for(var e=0;e<r;e++)t.push(t[e])}while(--n>0);return t}var j,P=function(){function t(r){n(this,t),this.list=r,this.length=r.length}return e(t,[{key:"setAttribute",value:function(t,n){for(var r=this.list,e=0;e<this.length;e++)r[e].setAttribute(t,n)}},{key:"removeAttribute",value:function(t){for(var n=this.list,r=0;r<this.length;r++)n[r].removeAttribute(t)}},{key:"style",value:function(t,n){for(var r=this.list,e=0;e<this.length;e++)r[e].style[t]=n}}]),t}(),I=/-./g,E=function(t,n){return n.toUpperCase()};function F(t){return"function"==typeof t?t:b}function N(t){return t?"function"==typeof t?t:Array.isArray(t)?function(t){var n=arguments.length>1&&void 0!==arguments[1]?arguments[1]:v;if(!Array.isArray(t))return n;switch(t.length){case 1:return m(t[0])||n;case 2:return m(t[0],t[1])||n;case 4:return d(t[0],t[1],t[2],t[3])||n}return n}(t,null):function(t,n){var r=arguments.length>2&&void 0!==arguments[2]?arguments[2]:v;switch(t){case"linear":return v;case"steps":return m(n.steps||1,n.jump||0)||r;case"bezier":case"cubic-bezier":return d(n.x1||0,n.y1||0,n.x2||0,n.y2||0)||r}return r}(t.type,t.value,null):null}function B(t,n,r){var e=arguments.length>3&&void 0!==arguments[3]&&arguments[3],i=n.length-1;if(t<=n[0].t)return e?[0,0,n[0].v]:n[0].v;if(t>=n[i].t)return e?[i,1,n[i].v]:n[i].v;var o,u=n[0],a=null;for(o=1;o<=i;o++){if(!(t>n[o].t)){a=n[o];break}u=n[o]}return null==a?e?[i,1,n[i].v]:n[i].v:u.t===a.t?e?[o,1,a.v]:a.v:(t=(t-u.t)/(a.t-u.t),u.e&&(t=u.e(t)),e?[o,t,r(t,u.v,a.v)]:r(t,u.v,a.v))}function R(t,n){var r=arguments.length>2&&void 0!==arguments[2]?arguments[2]:null;return t&&t.length?"function"!=typeof n?null:("function"!=typeof r&&(r=null),function(e){var i=B(e,t,n);return null!=i&&r&&(i=r(i)),i}):null}function q(t,n){return t.t-n.t}function T(n,r,e,i,o){var u,a="@"===e[0],l="#"===e[0],f=j[e],s=b;switch(a?(u=e.substr(1),e=u.replace(I,E)):l&&(e=e.substr(1)),t(f)){case"function":if(s=f(i,o,B,N,e,a,r,n),l)return s;break;case"string":s=R(i,F(f));break;case"object":if((s=R(i,F(f.i),f.f))&&"function"==typeof f.u)return f.u(r,s,e,a,n)}return s?function(t,n,r){var e=arguments.length>3&&void 0!==arguments[3]&&arguments[3];if(e)return t instanceof P?function(e){return t.style(n,r(e))}:function(e){return t.style[n]=r(e)};if(Array.isArray(n)){var i=n.length;return function(e){var o=r(e);if(null==o)for(var u=0;u<i;u++)t[u].removeAttribute(n);else for(var a=0;a<i;a++)t[a].setAttribute(n,o)}}return function(e){var i=r(e);null==i?t.removeAttribute(n):t.setAttribute(n,i)}}(r,e,s,a):null}function L(n,r,e,i){if(!i||"object"!==t(i))return null;var o=null,u=null;return Array.isArray(i)?u=function(t){if(!t||!t.length)return null;for(var n=0;n<t.length;n++)t[n].e&&(t[n].e=N(t[n].e));return t.sort(q)}(i):(u=i.keys,o=i.data||null),u?T(n,r,e,u,o):null}function C(t,n,r){if(!r)return null;var e=[];for(var i in r)if(r.hasOwnProperty(i)){var o=L(t,n,i,r[i]);o&&e.push(o)}return e.length?e:null}function z(t,n){if(!n.duration||n.duration<0)return null;var r=function(t,n){if(!n)return null;var r=[];if(Array.isArray(n))for(var e=n.length,i=0;i<e;i++){var o=n[i];if(2===o.length){var u=null;if("string"==typeof o[0])u=t.getElementById(o[0]);else if(Array.isArray(o[0])){u=[];for(var a=0;a<o[0].length;a++)if("string"==typeof o[0][a]){var l=t.getElementById(o[0][a]);l&&u.push(l)}u=u.length?1===u.length?u[0]:new P(u):null}if(u){var f=C(t,u,o[1]);f&&(r=r.concat(f))}}}else for(var s in n)if(n.hasOwnProperty(s)){var c=t.getElementById(s);if(c){var h=C(t,c,n[s]);h&&(r=r.concat(h))}}return r.length?r:null}(t,n.elements);return r?function(t,n){var r=arguments.length>2&&void 0!==arguments[2]?arguments[2]:1/0,e=arguments.length>3&&void 0!==arguments[3]?arguments[3]:1,i=arguments.length>4&&void 0!==arguments[4]&&arguments[4],o=arguments.length>5&&void 0!==arguments[5]?arguments[5]:1,u=t.length,a=e>0?n:0;i&&r%2==0&&(a=n-a);var l=null;return function(f,s){var c=f%n,h=1+(f-c)/n;s*=e,i&&h%2==0&&(s=-s);var v=!1;if(h>r)c=a,v=!0,-1===o&&(c=e>0?0:n);else if(s<0&&(c=n-c),c===l)return!1;l=c;for(var y=0;y<u;y++)t[y](c);return v}}(r,n.duration,n.iterations||1/0,n.direction||1,!!n.alternate,n.fill||1):null}Number.isInteger||(Number.isInteger=function(t){return"number"==typeof t&&isFinite(t)&&Math.floor(t)===t}),Number.EPSILON||(Number.EPSILON=2220446049250313e-31);var D=function(){function t(r,e){var i=arguments.length>2&&void 0!==arguments[2]?arguments[2]:{};n(this,t),this._id=0,this._running=!1,this._rollingBack=!1,this._animations=r,this.duration=e.duration,this.alternate=e.alternate,this.fill=e.fill,this.iterations=e.iterations,this.direction=i.direction||1,this.speed=i.speed||1,this.fps=i.fps||100,this.offset=i.offset||0,this.rollbackStartOffset=0}return e(t,[{key:"_rollback",value:function(){var t=this,n=1/0,r=null;this.rollbackStartOffset=this.offset,this._rollingBack||(this._rollingBack=!0,this._running=!0);this._id=window.requestAnimationFrame((function e(i){if(t._rollingBack){null==r&&(r=i);var o=i-r,u=t.rollbackStartOffset-o,a=Math.round(u*t.speed);if(a>t.duration&&n!=1/0){var l=!!t.alternate&&a/t.duration%2>1,f=a%t.duration;a=(f+=l?t.duration:0)||t.duration}var s=t.fps?1e3/t.fps:0,c=Math.max(0,a);if(c<n-s){t.offset=c,n=c;for(var h=t._animations,v=h.length,y=0;y<v;y++)h[y](c,t.direction)}var d=!1;if(t.iterations>0&&-1===t.fill){var g=t.iterations*t.duration,p=g==a;a=p?0:a,t.offset=p?0:t.offset,d=a>g}a>0&&t.offset>=a&&!d?t._id=window.requestAnimationFrame(e):t.stop()}}))}},{key:"_start",value:function(){var t=this,n=arguments.length>0&&void 0!==arguments[0]?arguments[0]:0,r=-1/0,e=null,i={},o=function o(u){t._running=!0,null==e&&(e=u);var a=Math.round((u-e+n)*t.speed),l=t.fps?1e3/t.fps:0;if(a>r+l&&!t._rollingBack){t.offset=a,r=a;for(var f=t._animations,s=f.length,c=0,h=0;h<s;h++)i[h]?c++:(i[h]=f[h](a,t.direction),i[h]&&c++);if(c===s)return void t._stop()}t._id=window.requestAnimationFrame(o)};this._id=window.requestAnimationFrame(o)}},{key:"_stop",value:function(){this._id&&window.cancelAnimationFrame(this._id),this._running=!1,this._rollingBack=!1}},{key:"play",value:function(){!this._rollingBack&&this._running||(this._rollingBack=!1,this.rollbackStartOffset>this.duration&&(this.offset=this.rollbackStartOffset-(this.rollbackStartOffset-this.offset)%this.duration,this.rollbackStartOffset=0),this._start(this.offset))}},{key:"stop",value:function(){this._stop(),this.offset=0,this.rollbackStartOffset=0;var t=this.direction,n=this._animations;window.requestAnimationFrame((function(){for(var r=0;r<n.length;r++)n[r](0,t)}))}},{key:"reachedToEnd",value:function(){return this.iterations>0&&this.offset>=this.iterations*this.duration}},{key:"restart",value:function(){this._stop(),this.offset=0,this._start()}},{key:"pause",value:function(){this._stop()}},{key:"reverse",value:function(){this.direction=-this.direction}}],[{key:"build",value:function(n,r){return(n=function(t,n){if(j=n,!t||!t.root||!Array.isArray(t.animations))return null;for(var r=document.getElementsByTagName("svg"),e=!1,i=0;i<r.length;i++)if(r[i].id===t.root&&!r[i].svgatorAnimation){(e=r[i]).svgatorAnimation=!0;break}if(!e)return null;var o=t.animations.map((function(t){return z(e,t)})).filter((function(t){return!!t}));return o.length?{element:e,animations:o,animationSettings:t.animationSettings,options:t.options||void 0}:null}(n,r))?{el:n.element,options:n.options||{},player:new t(n.animations,n.animationSettings,n.options)}:null}}]),t}();function Q(t){return s(t)+""}function U(t){var n=arguments.length>1&&void 0!==arguments[1]?arguments[1]:" ";return t&&t.length?t.map(Q).join(n):""}function V(t){return t?null==t.a||t.a>=1?"rgb("+t.r+","+t.g+","+t.b+")":"rgba("+t.r+","+t.g+","+t.b+","+t.a+")":"transparent"}!function(){for(var t=0,n=["ms","moz","webkit","o"],r=0;r<n.length&&!window.requestAnimationFrame;++r)window.requestAnimationFrame=window[n[r]+"RequestAnimationFrame"],window.cancelAnimationFrame=window[n[r]+"CancelAnimationFrame"]||window[n[r]+"CancelRequestAnimationFrame"];window.requestAnimationFrame||(window.requestAnimationFrame=function(n){var r=Date.now(),e=Math.max(0,16-(r-t)),i=window.setTimeout((function(){n(r+e)}),e);return t=r+e,i},window.cancelAnimationFrame=window.clearTimeout)}();var G={f:null,i:function(t,n,r){return 0===t?n:1===t?r:{x:x(t,n.x,r.x),y:x(t,n.y,r.y)}},u:function(t,n){return function(r){var e=n(r);t.setAttribute("rx",Q(e.x)),t.setAttribute("ry",Q(e.y))}}},H={f:null,i:function(t,n,r){return 0===t?n:1===t?r:{width:x(t,n.width,r.width),height:x(t,n.height,r.height)}},u:function(t,n){return function(r){var e=n(r);t.setAttribute("width",Q(e.width)),t.setAttribute("height",Q(e.height))}}},Y=Math.sin,Z=Math.cos,J=Math.acos,K=Math.asin,W=Math.tan,X=Math.atan2,$=Math.PI/180,tt=180/Math.PI,nt=Math.sqrt,rt=function(){function t(){var r=arguments.length>0&&void 0!==arguments[0]?arguments[0]:1,e=arguments.length>1&&void 0!==arguments[1]?arguments[1]:0,i=arguments.length>2&&void 0!==arguments[2]?arguments[2]:0,o=arguments.length>3&&void 0!==arguments[3]?arguments[3]:1,u=arguments.length>4&&void 0!==arguments[4]?arguments[4]:0,a=arguments.length>5&&void 0!==arguments[5]?arguments[5]:0;n(this,t),this.m=[r,e,i,o,u,a],this.i=null,this.w=null,this.s=null}return e(t,[{key:"determinant",get:function(){var t=this.m;return t[0]*t[3]-t[1]*t[2]}},{key:"isIdentity",get:function(){if(null===this.i){var t=this.m;this.i=1===t[0]&&0===t[1]&&0===t[2]&&1===t[3]&&0===t[4]&&0===t[5]}return this.i}},{key:"point",value:function(t,n){var r=this.m;return{x:r[0]*t+r[2]*n+r[4],y:r[1]*t+r[3]*n+r[5]}}},{key:"translateSelf",value:function(){var t=arguments.length>0&&void 0!==arguments[0]?arguments[0]:0,n=arguments.length>1&&void 0!==arguments[1]?arguments[1]:0;if(!t&&!n)return this;var r=this.m;return r[4]+=r[0]*t+r[2]*n,r[5]+=r[1]*t+r[3]*n,this.w=this.s=this.i=null,this}},{key:"rotateSelf",value:function(){var t=arguments.length>0&&void 0!==arguments[0]?arguments[0]:0;if(t%=360){var n=Y(t*=$),r=Z(t),e=this.m,i=e[0],o=e[1];e[0]=i*r+e[2]*n,e[1]=o*r+e[3]*n,e[2]=e[2]*r-i*n,e[3]=e[3]*r-o*n,this.w=this.s=this.i=null}return this}},{key:"scaleSelf",value:function(){var t=arguments.length>0&&void 0!==arguments[0]?arguments[0]:1,n=arguments.length>1&&void 0!==arguments[1]?arguments[1]:1;if(1!==t||1!==n){var r=this.m;r[0]*=t,r[1]*=t,r[2]*=n,r[3]*=n,this.w=this.s=this.i=null}return this}},{key:"skewSelf",value:function(t,n){if(n%=360,(t%=360)||n){var r=this.m,e=r[0],i=r[1],o=r[2],u=r[3];t&&(t=W(t*$),r[2]+=e*t,r[3]+=i*t),n&&(n=W(n*$),r[0]+=o*n,r[1]+=u*n),this.w=this.s=this.i=null}return this}},{key:"resetSelf",value:function(){var t=arguments.length>0&&void 0!==arguments[0]?arguments[0]:1,n=arguments.length>1&&void 0!==arguments[1]?arguments[1]:0,r=arguments.length>2&&void 0!==arguments[2]?arguments[2]:0,e=arguments.length>3&&void 0!==arguments[3]?arguments[3]:1,i=arguments.length>4&&void 0!==arguments[4]?arguments[4]:0,o=arguments.length>5&&void 0!==arguments[5]?arguments[5]:0,u=this.m;return u[0]=t,u[1]=n,u[2]=r,u[3]=e,u[4]=i,u[5]=o,this.w=this.s=this.i=null,this}},{key:"recomposeSelf",value:function(){var t=arguments.length>0&&void 0!==arguments[0]?arguments[0]:null,n=arguments.length>1&&void 0!==arguments[1]?arguments[1]:null,r=arguments.length>2&&void 0!==arguments[2]?arguments[2]:null,e=arguments.length>3&&void 0!==arguments[3]?arguments[3]:null,i=arguments.length>4&&void 0!==arguments[4]?arguments[4]:null;return this.isIdentity||this.resetSelf(),t&&(t.x||t.y)&&this.translateSelf(t.x,t.y),n&&this.rotateSelf(n),r&&(r.x&&this.skewSelf(r.x,0),r.y&&this.skewSelf(0,r.y)),!e||1===e.x&&1===e.y||this.scaleSelf(e.x,e.y),i&&(i.x||i.y)&&this.translateSelf(i.x,i.y),this}},{key:"decompose",value:function(){var t=arguments.length>0&&void 0!==arguments[0]?arguments[0]:0,n=arguments.length>1&&void 0!==arguments[1]?arguments[1]:0,r=this.m,e=r[0]*r[0]+r[1]*r[1],i=[[r[0],r[1]],[r[2],r[3]]],o=nt(e);if(0===o)return{origin:{x:s(r[4]),y:s(r[5])},translate:{x:s(t),y:s(n)},scale:{x:0,y:0},skew:{x:0,y:0},rotate:0};i[0][0]/=o,i[0][1]/=o;var u=r[0]*r[3]-r[1]*r[2]<0;u&&(o=-o);var a=i[0][0]*i[1][0]+i[0][1]*i[1][1];i[1][0]-=i[0][0]*a,i[1][1]-=i[0][1]*a;var l=nt(i[1][0]*i[1][0]+i[1][1]*i[1][1]);if(0===l)return{origin:{x:s(r[4]),y:s(r[5])},translate:{x:s(t),y:s(n)},scale:{x:s(o),y:0},skew:{x:0,y:0},rotate:0};i[1][0]/=l,i[1][1]/=l,a/=l;var f=0;return i[1][1]<0?(f=J(i[1][1])*tt,i[0][1]<0&&(f=360-f)):f=K(i[0][1])*tt,u&&(f=-f),a=X(a,nt(i[0][0]*i[0][0]+i[0][1]*i[0][1]))*tt,u&&(a=-a),{origin:{x:s(r[4]),y:s(r[5])},translate:{x:s(t),y:s(n)},scale:{x:s(o),y:s(l)},skew:{x:s(a),y:0},rotate:s(f)}}},{key:"toString",value:function(){return null===this.s&&(this.s="matrix("+this.m.map((function(t){return s(t)})).join(" ")+")"),this.s}}]),t}();Object.freeze({M:2,L:2,Z:0,H:1,V:1,C:6,Q:4,T:2,S:4,A:7});var et={},it=null;function ot(n){var r=function(){if(it)return it;if("object"!==("undefined"==typeof document?"undefined":t(document))||!document.createElementNS)return{};var n=document.createElementNS("http://www.w3.org/2000/svg","svg");return n&&n.style?(n.style.position="absolute",n.style.opacity="0.01",n.style.zIndex="-9999",n.style.left="-9999px",n.style.width="1px",n.style.height="1px",it={svg:n}):{}}().svg;if(!r)return function(t){return null};var e=document.createElementNS(r.namespaceURI,"path");e.setAttributeNS(null,"d",n),e.setAttributeNS(null,"fill","none"),e.setAttributeNS(null,"stroke","none"),r.appendChild(e);var i=e.getTotalLength();return function(t){var n=e.getPointAtLength(i*t);return{x:n.x,y:n.y}}}function ut(t){return et[t]?et[t]:et[t]=ot(t)}function at(t,n,r,e){if(!t||!e)return!1;var i=["M",t.x,t.y];if(n&&r&&(i.push("C"),i.push(n.x),i.push(n.y),i.push(r.x),i.push(r.y)),n?!r:r){var o=n||r;i.push("Q"),i.push(o.x),i.push(o.y)}return n||r||i.push("L"),i.push(e.x),i.push(e.y),i.join(" ")}function lt(t,n,r,e){var i=arguments.length>4&&void 0!==arguments[4]?arguments[4]:1,o=at(t,n,r,e),u=ut(o);try{return u(i)}catch(t){return null}}function ft(t,n,r,e){var i=1-e;return i*i*t+2*i*e*n+e*e*r}function st(t,n,r,e){return 2*(1-e)*(n-t)+2*e*(r-n)}function ct(t,n,r,e){var i=arguments.length>4&&void 0!==arguments[4]&&arguments[4],o=lt(t,n,null,r,e);return o||(o={x:ft(t.x,n.x,r.x,e),y:ft(t.y,n.y,r.y,e)}),i&&(o.a=ht(t,n,r,e)),o}function ht(t,n,r,e){return Math.atan2(st(t.y,n.y,r.y,e),st(t.x,n.x,r.x,e))}function vt(t,n,r,e,i){var o=i*i;return i*o*(e-t+3*(n-r))+3*o*(t+r-2*n)+3*i*(n-t)+t}function yt(t,n,r,e,i){var o=1-i;return 3*(o*o*(n-t)+2*o*i*(r-n)+i*i*(e-r))}function dt(t,n,r,e,i){var o=arguments.length>5&&void 0!==arguments[5]&&arguments[5],u=lt(t,n,r,e,i);return u||(u={x:vt(t.x,n.x,r.x,e.x,i),y:vt(t.y,n.y,r.y,e.y,i)}),o&&(u.a=gt(t,n,r,e,i)),u}function gt(t,n,r,e,i){return Math.atan2(yt(t.y,n.y,r.y,e.y,i),yt(t.x,n.x,r.x,e.x,i))}function pt(t,n,r){return t+(n-t)*r}function mt(t,n,r){var e=arguments.length>3&&void 0!==arguments[3]&&arguments[3],i={x:pt(t.x,n.x,r),y:pt(t.y,n.y,r)};return e&&(i.a=bt(t,n)),i}function bt(t,n){return Math.atan2(n.y-t.y,n.x-t.x)}function wt(t,n,r){var e=arguments.length>3&&void 0!==arguments[3]&&arguments[3];if(kt(n)){if(At(r))return ct(n,r.start,r,t,e)}else if(kt(r)){if(n.end)return ct(n,n.end,r,t,e)}else{if(n.end)return r.start?dt(n,n.end,r.start,r,t,e):ct(n,n.end,r,t,e);if(r.start)return ct(n,r.start,r,t,e)}return mt(n,r,t,e)}function xt(t,n,r){var e=wt(t,n,r,!0);return e.a=function(t){var n=arguments.length>1&&void 0!==arguments[1]&&arguments[1];return n?t+Math.PI:t}(e.a)/h,e}function kt(t){return!t.type||"corner"===t.type}function At(t){return null!=t.start&&!kt(t)}var St=new rt;var _t={f:Q,i:w},Ot={f:Q,i:function(t,n,r){var e=w(t,n,r);return e<=0?0:e>=1?1:e}};function Mt(t,n,r,e,i,o,u,a){return n=function(t,n,r){for(var e,i,o,u=t.length-1,a={},l=0;l<=u;l++)(e=t[l]).e&&(e.e=n(e.e)),e.v&&"g"===(i=e.v).t&&i.r&&(o=r.getElementById(i.r))&&(a[i.r]=o.querySelectorAll("stop"));return a}(t,e,a),function(e){var i,o=r(e,t,jt);return o?"c"===o.t?V(o.v):"g"===o.t?(n[o.r]&&function(t,n){for(var r=0,e=t.length;r<e;r++)t[r].setAttribute("stop-color",V(n[r]))}(n[o.r],o.v),(i=o.r)?"url(#"+i+")":"none"):"none":"none"}}function jt(t,n,r){if(0===t)return n;if(1===t)return r;if(n&&r){var e=n.t;if(e===r.t)switch(n.t){case"c":return{t:e,v:S(t,n.v,r.v)};case"g":if(n.r===r.r)return{t:e,v:_(t,n.v,r.v),r:n.r}}}return b(t,n,r)}var Pt={fill:Mt,"fill-opacity":Ot,stroke:Mt,"stroke-opacity":Ot,"stroke-width":_t,"stroke-dashoffset":{f:Q,i:w},"stroke-dasharray":{f:function(t){var n=arguments.length>1&&void 0!==arguments[1]?arguments[1]:" ";return t&&t.length>0&&(t=t.map((function(t){return s(t,4)}))),U(t,n)},i:function(t,n,r){var e,i,o,u=n.length,a=r.length;if(u!==a)if(0===u)n=O(u=a,0);else if(0===a)a=u,r=O(u,0);else{var l=(o=(e=u)*(i=a)/function(t,n){for(var r;n;)r=n,n=t%n,t=r;return t||1}(e,i))<0?-o:o;n=M(n,Math.floor(l/u)),r=M(r,Math.floor(l/a)),u=a=l}for(var f=[],c=0;c<u;c++)f.push(s(x(t,n[c],r[c])));return f}},opacity:Ot,transform:function(n,r,e,i){if(!(n=function(n,r){if(!n||"object"!==t(n))return null;var e=!1;for(var i in n)n.hasOwnProperty(i)&&(n[i]&&n[i].length?(n[i].forEach((function(t){t.e&&(t.e=r(t.e))})),e=!0):delete n[i]);return e?n:null}(n,i)))return null;var o=function(t,i,o){var u=arguments.length>3&&void 0!==arguments[3]?arguments[3]:null;return n[t]?e(i,n[t],o):r&&r[t]?r[t]:u};return r&&r.a&&n.o?function(t){var r=e(t,n.o,xt);return St.recomposeSelf(r,o("r",t,w,0)+r.a,o("k",t,k),o("s",t,k),o("t",t,k)).toString()}:function(t){return St.recomposeSelf(o("o",t,wt,null),o("r",t,w,0),o("k",t,k),o("s",t,k),o("t",t,k)).toString()}},r:_t,"#size":H,"#radius":G,_:function(t,n){if(Array.isArray(t))for(var r=0;r<t.length;r++)this[t[r]]=n;else this[t]=n}};return function(t){!function(t,n){if("function"!=typeof n&&null!==n)throw new TypeError("Super expression must either be null or a function");t.prototype=Object.create(n&&n.prototype,{constructor:{value:t,writable:!0,configurable:!0}}),n&&o(t,n)}(u,t);var r=a(u);function u(){return n(this,u),r.apply(this,arguments)}return e(u,null,[{key:"build",value:function(t){var n=l(i(u),"build",this).call(this,t,Pt);if(!n)return null;n.el,n.options;var r=n.player;return function(t,n,r){t.play()}(r),r}}]),u}(D)}));
__SVGATOR_PLAYER__.build({"root":"eE712PWqkp41","animations":[{"duration":3000,"direction":1,"iterations":0,"fill":1,"alternate":false,"speed":1,"elements":{"eE712PWqkp45":{"transform":{"data":{"o":{"x":110.440007,"y":930.292946,"type":"corner"},"t":{"x":-110.440007,"y":-930.292928}},"keys":{"r":[{"t":0,"v":0},{"t":1500,"v":6.916021},{"t":3000,"v":0.151827}]}}},"eE712PWqkp413":{"transform":{"data":{"o":{"x":223.100007,"y":930.292946,"type":"corner"},"t":{"x":-223.099997,"y":-930.292922}},"keys":{"r":[{"t":0,"v":0},{"t":1700,"v":5.595357},{"t":3000,"v":-0.693519}]}}},"eE712PWqkp421":{"transform":{"data":{"o":{"x":313.150007,"y":930.292946,"type":"corner"},"t":{"x":-313.150007,"y":-930.292931}},"keys":{"r":[{"t":0,"v":0},{"t":1500,"v":3.278816},{"t":3000,"v":0.192111}]}}},"eE712PWqkp465":{"transform":{"data":{"o":{"x":427.87,"y":700.94,"type":"corner"},"t":{"x":-427.87,"y":-700.939996}},"keys":{"r":[{"t":0,"v":0},{"t":1300,"v":10.078911},{"t":3000,"v":-0.410777}]}}},"eE712PWqkp471":{"transform":{"data":{"o":{"x":1196.28,"y":930.292946,"type":"corner"},"t":{"x":-1196.279991,"y":-930.292933}},"keys":{"r":[{"t":0,"v":0},{"t":1500,"v":-2.620066},{"t":3000,"v":0.088871}]}}},"eE712PWqkp4110":{"transform":{"data":{"o":{"x":933.670007,"y":496.38,"type":"corner"},"t":{"x":-933.670001,"y":-496.379997}},"keys":{"r":[{"t":0,"v":0},{"t":1500,"v":-6.934001},{"t":3000,"v":0.436084}]}}},"eE712PWqkp4115":{"transform":{"data":{"o":{"x":1177.060007,"y":791.410001,"type":"corner"},"t":{"x":-1177.060007,"y":-791.409984}},"keys":{"r":[{"t":0,"v":0},{"t":800,"v":6.203059},{"t":2300,"v":-7.773514},{"t":3000,"v":-0.081095}]}}},"eE712PWqkp4181":{"transform":{"data":{"o":{"x":753.530007,"y":930.292946,"type":"corner"},"t":{"x":-753.530007,"y":-930.292941}},"keys":{"r":[{"t":0,"v":0},{"t":1200,"v":-9.819079},{"t":3000,"v":0.361608}]}}},"eE712PWqkp4188":{"transform":{"data":{"o":{"x":804.265686,"y":930.292946,"type":"corner"},"t":{"x":-804.265686,"y":-930.292942}},"keys":{"r":[{"t":0,"v":0},{"t":1900,"v":-9.982459},{"t":3000,"v":0.901221}]}}},"eE712PWqkp4196":{"transform":{"data":{"o":{"x":1312.855668,"y":929.650704,"type":"corner"},"t":{"x":-1309.797284,"y":-930.439976}},"keys":{"r":[{"t":0,"v":0.161377},{"t":1700,"v":5.977396},{"t":3000,"v":0.032143}]}}},"eE712PWqkp4203":{"transform":{"data":{"o":{"x":1314.540007,"y":930.720001,"type":"corner"},"t":{"x":-1314.540007,"y":-930.719998}},"keys":{"r":[{"t":0,"v":0},{"t":1500,"v":-6.714483},{"t":3000,"v":0.310994}]}}}}}],"options":{"start":"load","hover":null,"click":null,"scroll":null,"font":"embed","exportedIds":"unique","svgFormat":"animated","title":"portfolioanimation"},"animationSettings":{"duration":3000,"direction":1,"iterations":0,"fill":1,"alternate":false,"speed":1}})
		]]>
</script>
<path class="st4" d="M1041.2,436.5c0,0-31.7,40.6-23.6,114.5c8.1,73.9,40.9,250.3,13.6,316.4c-27.4,66.1-34.2,64.3-34.2,64.3"/>
<path class="st4" d="M379.6,639.1c0,0,87.4,35.4,94.5,104.4c7.2,69,48.7,188.3,48.7,188.3"/>
<path class="st4" d="M479.6,778.2c0,0,2.2-104.7,50.4-155.6c48.2-50.8,48.2-50.8,48.2-50.8"/>
<path id="eE712PWqkp4206_00000070107046444196266800000012634428717222295950_" class="st9" d="M577.9,571.8c0,0-20.7-47.5-4.6-75.8
	c13.2-20.3,18.3,25.8,18.3,25.8C580.8,545.1,577.9,571.8,577.9,571.8"/>
<path id="eE712PWqkp4208_00000154412448841142384450000017540984973872477615_" class="st9" d="M578,571.8c0,0,2.9-26.7,13.7-49.9
	c6.2-13.3,12.3-21.7,24.7-27.1c0.9-0.4,2.3-0.7,3.1-0.2c0.8,0.5,2.6,1.5,2.7,2.5c0.5,6.6,0.9,17.8-10.8,37.1l0,0
	C604.6,545.3,594.1,558.1,578,571.8"/>
<path id="eE712PWqkp4209_00000152972546113512893990000009172475505311664522_" class="st9" d="M578,571.8
	c16.2-13.7,26.7-26.5,33.5-37.7l0,0c0.9-0.6,48.7-30.7,44.4-2.7c-0.5,3.3-1.9,6.3-4.1,8.8C632.4,562.9,578,571.8,578,571.8"/>
<path id="eE712PWqkp4189_00000168114266279674279540000017856582274121396105_" class="st4" d="M820.9,668.5"/>
<g id="eE712PWqkp413_00000079478095260073374720000013400788324637596590_" transform="matrix(1 0 0 1 0.00001 0.000024)">
	<path id="eE712PWqkp417_00000038373116921836775280000009745660992072052654_" class="st1" d="M812.2,869.4
		c-0.2-2.9-0.4-5.8-0.7-8.6l0-0.1c-0.1-0.7-0.1-1.4-0.3-2.2l0-0.1c-0.2-5.1,1.1-17.3,17.4-23.5C849.5,826.8,812.2,869.4,812.2,869.4
		z"/>
	<path id="eE712PWqkp414_00000132770395767431587030000004238311849120934050_" class="st8" d="M798.8,802"/>
	<path id="eE712PWqkp415_00000075856998512204547750000017707335450054854310_" class="st0" d="M812.2,869.4"/>
	<path id="eE712PWqkp416_00000181798459796254288440000006900214778004776119_" class="st0" d="M812.2,869.4"/>
	<path id="eE712PWqkp418_00000171686034194742052720000003035110506381440672_" class="st0" d="M811.5,860.6
		c-0.1-0.7-0.2-1.4-0.3-2.2"/>
</g>
<path class="st0" d="M837.9,931.7c0,0-32.8-40.6-25.6-96s7.2-55.5,7.2-55.5"/>
<path id="eE712PWqkp4206_00000101085124298663770410000014370100950753518996_" class="st7" d="M819.6,781.2c0,0,3.7-26.6-1.2-51.8
	c0,0,15.3-51.9,24-20.6C851.1,740.1,819.6,781.2,819.6,781.2"/>
<path id="eE712PWqkp4208_00000078026133338377237710000007461738360866153662_" class="st7" d="M819.5,781.2
	c-12.4-17.2-19.5-32.1-23.3-44.7l0,0c-6.7-21.6-3.8-36-1.7-42.3c0.3-0.9,1.1-1.6,2-1.9c0.9-0.3,1.9-0.1,2.7,0.5
	c10.7,8.3,16.3,22.2,19.1,36.6C823.2,754.6,819.5,781.2,819.5,781.2"/>
<path id="eE712PWqkp4209_00000168811869765831845340000004180479745781232529_" class="st7" d="M819.5,781.2
	c0,0-50.7-21.7-63.9-48.4c-1.5-3-2.1-6.3-1.8-9.5c2.8-9.9,41.7,12.6,42.4,13.3l0,0C800.1,749.1,807.2,764,819.5,781.2"/>
</svg>
