<?xml version="1.0" encoding="utf-8"?>
<!-- Generator: Adobe Illustrator 28.1.0, SVG Export Plug-In . SVG Version: 6.00 Build 0)  -->
<svg version="1.1" id="Lag_1" xmlns="http://www.w3.org/2000/svg" xmlns:xlink="http://www.w3.org/1999/xlink" x="0px" y="0px"
	 viewBox="0 0 841.9 160.7" style="enable-background:new 0 0 841.9 160.7;" xml:space="preserve">
<style type="text/css">
	.st0{fill:none;stroke:#6F8450;stroke-width:3;stroke-miterlimit:10;}
	.st1{fill:url(#eE712PWqkp426_00000076577658112963455700000018109115904303405223_);}
	.st2{fill:#4E5C37;}
	.st3{fill:url(#eE712PWqkp434_00000034069844680719388740000007883677145799512989_);}
	.st4{fill:url(#eE712PWqkp436_00000024700446560351628870000012280378880674190517_);}
	.st5{fill:url(#eE712PWqkp438_00000065784414105477816730000018026628068215675028_);}
	.st6{fill:url(#eE712PWqkp442_00000026149921570120974800000000691603103692739495_);}
	.st7{fill:url(#eE712PWqkp444_00000076567898129571798370000016373952387737500595_);}
	.st8{fill:url(#eE712PWqkp446_00000066494689570856577530000014388761518074128053_);}
	.st9{fill:url(#eE712PWqkp450_00000036224959913371842450000001665893472798775941_);}
	.st10{fill:url(#eE712PWqkp453_00000047766218087205179870000005473645139390228911_);}
	.st11{fill:url(#eE712PWqkp455_00000025441742208881408010000003189509735843877531_);}
	.st12{fill:none;stroke:#1E1E1C;stroke-width:2;stroke-linejoin:round;}
	.st13{fill:url(#eE712PWqkp459_00000049223384808323762180000002856003055981726604_);}
	.st14{fill:url(#eE712PWqkp461_00000134939180646152298440000015465347204305586048_);}
	.st15{fill:url(#eE712PWqkp434_00000183936608794707026710000006396797207855724938_);}
	.st16{fill:url(#eE712PWqkp436_00000015315732251315008430000012028006545989352115_);}
	.st17{fill:url(#eE712PWqkp444_00000033357620075285236540000007087504320420749502_);}
	.st18{fill:url(#eE712PWqkp446_00000091709283000650492130000006664652479087208622_);}
	.st19{fill:url(#eE712PWqkp446_00000165917097856686230910000011806915403400696991_);}
	.st20{fill:url(#eE712PWqkp446_00000144320912481652498770000012771989866282867861_);}
	.st21{fill:url(#eE712PWqkp455_00000145749743646730577320000004780487822845807021_);}
</style>
<g id="plant2">
	<path id="eE712PWqkp432" class="st0" d="M776.2,56.2c0,0-28.3,32-117.9,45.7c-22.2,3.3-44.6,5.3-67,5.7l0,0v0.1
		c-30.1,0.8-64.6-0.2-104.3-4c-1.7-0.2-3.5-0.4-5.2-0.6c-1-0.2-1.9-0.3-2.9-0.5l-26.7-4.8l-52.3-9.3l-3.8-0.7L361,81.6l-2.4-0.5
		l-41.6-7.4l-2.9-0.6L274,66l-3-0.5l-27.5-4.9c-2.5-0.5-5-1-7.4-1.7c-5.5-1.4-11.1-2.5-16.7-3.3L206.7,54c-5.8-0.6-12.5-1-19.9-1.3
		c-22.7-0.6-45.5,0.6-68.1,3.5l-3.3,0.4c-15.4,2-32,5-50.2,9.1"/>
	
		<linearGradient id="eE712PWqkp426_00000002384071744294335680000015809158840813764501_" gradientUnits="userSpaceOnUse" x1="407.2845" y1="444.5862" x2="417.1129" y2="418.1948" gradientTransform="matrix(1.208618e-07 -1 -1 -1.208618e-07 478.4255 485.1103)">
		<stop  offset="0" style="stop-color:#91AC65"/>
		<stop  offset="0.2717" style="stop-color:#8DA661"/>
		<stop  offset="0.625" style="stop-color:#7E9658"/>
		<stop  offset="1" style="stop-color:#687D4C"/>
	</linearGradient>
	<path id="eE712PWqkp426" style="fill:url(#eE712PWqkp426_00000002384071744294335680000015809158840813764501_);" d="M68,64.5
		c0,0-40.9,45.7-48.4,18.9C12,56.5,68,64.5,68,64.5z"/>
	<path id="eE712PWqkp433" class="st2" d="M32.3,81.5c0.5-1.4,1.4-2.7,2.4-3.8c1-1.1,2.1-2.1,3.4-3.1c2.5-1.8,5.1-3.2,8-4.4
		c0.7-0.3,1.4-0.6,2.1-0.8l2.2-0.7c1.5-0.4,2.9-0.8,4.4-1.2c1.5-0.4,2.9-0.6,4.5-0.9l4.5-0.6l-1.9,1.4c-0.6,0.5-1.5,0.8-2.3,0.9l0,0
		c-1.5,0.2-2.9,0.5-4.4,0.6c-1.5,0.2-2.9,0.6-4.4,0.9l-2.1,0.6c-0.7,0.2-1.5,0.4-2.1,0.6c-2.8,0.9-5.5,2.2-8.1,3.9
		c-1.3,0.8-2.4,1.8-3.5,2.9C33.8,78.8,32.9,80.1,32.3,81.5z"/>
	
		<linearGradient id="eE712PWqkp434_00000085945442391253031490000015178177673033617537_" gradientUnits="userSpaceOnUse" x1="437.0249" y1="363.7982" x2="472.9409" y2="390.0795" gradientTransform="matrix(1.208618e-07 -1 -1 -1.208618e-07 478.4255 485.1103)">
		<stop  offset="0" style="stop-color:#687D4C"/>
		<stop  offset="0.1079" style="stop-color:#718650"/>
		<stop  offset="0.4138" style="stop-color:#819B5B"/>
		<stop  offset="0.7141" style="stop-color:#8EA862"/>
		<stop  offset="1" style="stop-color:#91AC65"/>
	</linearGradient>
	<path id="eE712PWqkp434" style="fill:url(#eE712PWqkp434_00000085945442391253031490000015178177673033617537_);" d="M118.7,56.2
		c-1,0.1-1.9,0.3-2.9,0.4l-0.5,0.1c0,0-41.3-27.1-23.6-43.4C91.7,13.2,109.2,0.8,118.7,56.2z"/>
	<path id="eE712PWqkp435" class="st2" d="M97.4,26.5c1.3,2.5,2.7,4.9,4.1,7.2c1.5,2.3,2.9,4.7,4.6,6.9c1.6,2.2,3.3,4.4,5.1,6.5
		c1.5,1.6,1.7,2,3.3,3.4c0.7,0.6,2,2.9,1.4,3.7l0,0c-2.1-1.9-3.9-4-5.7-6.2c-1.7-2.2-3.3-4.5-4.9-6.8c-1.5-2.3-2.8-4.8-4.2-7.2
		C99.7,31.6,98.5,29.1,97.4,26.5z"/>
	
		<linearGradient id="eE712PWqkp436_00000075855293969033922920000000202180231323086723_" gradientUnits="userSpaceOnUse" x1="397.8602" y1="304.742" x2="427.5134" y2="279.1307" gradientTransform="matrix(1.208618e-07 -1 -1 -1.208618e-07 478.4255 485.1103)">
		<stop  offset="0" style="stop-color:#91AC65"/>
		<stop  offset="0.2717" style="stop-color:#8DA661"/>
		<stop  offset="0.625" style="stop-color:#7E9658"/>
		<stop  offset="1" style="stop-color:#687D4C"/>
	</linearGradient>
	<path id="eE712PWqkp436" style="fill:url(#eE712PWqkp436_00000075855293969033922920000000202180231323086723_);" d="M201.9,54.1
		c0,0-19.3,46.6-32.6,38.4C156.1,84.3,201.9,54.1,201.9,54.1z"/>
	<path id="eE712PWqkp437" class="st2" d="M178.5,83.4l21-27.1l0,0c-0.9,2.9-2.4,5.6-4.3,7.8L178.5,83.4z"/>
	
		<linearGradient id="eE712PWqkp438_00000018948062243471703620000013430271580210455212_" gradientUnits="userSpaceOnUse" x1="434.5978" y1="266.2866" x2="462.0594" y2="286.7996" gradientTransform="matrix(1.208618e-07 -1 -1 -1.208618e-07 478.4255 485.1103)">
		<stop  offset="0" style="stop-color:#687D4C"/>
		<stop  offset="0.1079" style="stop-color:#718650"/>
		<stop  offset="0.4138" style="stop-color:#819B5B"/>
		<stop  offset="0.7141" style="stop-color:#8EA862"/>
		<stop  offset="1" style="stop-color:#91AC65"/>
	</linearGradient>
	<path id="eE712PWqkp438" style="fill:url(#eE712PWqkp438_00000018948062243471703620000013430271580210455212_);" d="M219.5,55.6
		c-0.6-0.1-1.3-0.2-2-0.3c-3.2-0.5-6.8-0.9-10.7-1.3c0,0-23.2-16.2-12.5-31.3C194.2,22.6,202.5,10.5,219.5,55.6z"/>
	<path id="eE712PWqkp439" class="st2" d="M197.4,32.5c0.2,1.1,0.5,2.2,1.1,3.2c0.2,0.6,0.5,1,0.8,1.5c0.3,0.5,0.5,0.9,0.9,1.4
		c1.3,1.9,2.7,3.6,4.4,5.1c1.6,1.6,3.4,3,5.2,4.3l1.6,1l0.6,0.6c1.1,1,2,2.2,2.6,3.5l0,0l-2.8-1.9l-2.7-2.1c-1.8-1.5-3.5-3.1-5-4.7
		c-1.6-1.7-3-3.5-4.2-5.5c-0.3-0.5-0.5-1-0.8-1.5c-0.3-0.5-0.5-1-0.7-1.6C197.9,34.7,197.6,33.6,197.4,32.5z"/>
	
		<linearGradient id="eE712PWqkp442_00000123443440529832055730000001382241957163043002_" gradientUnits="userSpaceOnUse" x1="416.7806" y1="169.0049" x2="448.2153" y2="190.7811" gradientTransform="matrix(1.208618e-07 -1 -1 -1.208618e-07 478.4255 485.1103)">
		<stop  offset="0" style="stop-color:#687D4C"/>
		<stop  offset="0.1079" style="stop-color:#718650"/>
		<stop  offset="0.4138" style="stop-color:#819B5B"/>
		<stop  offset="0.7141" style="stop-color:#8EA862"/>
		<stop  offset="1" style="stop-color:#91AC65"/>
	</linearGradient>
	<path id="eE712PWqkp442" style="fill:url(#eE712PWqkp442_00000123443440529832055730000001382241957163043002_);" d="M292.5,35.4
		c4.8,0.8,13.5,7.5,24.5,38.3l-0.9-0.2l-2-0.4c0,0-34.4-14.2-26.5-34.8C288.2,36.3,290.3,35.1,292.5,35.4z"/>
	<path id="eE712PWqkp443" class="st2" d="M293.9,47.4c1.1,2.4,2.4,4.6,3.9,6.8c1.6,2.1,3.2,4.1,5,5.9c1.8,1.9,3.8,3.5,5.8,5.2
		c1,0.8,0.6,0.4,1.6,1.2l0,0c1.6,1.2,2.8,2.8,3.6,4.6l0.1,0.2c-1.1-0.8-2.1-1.6-3.2-2.3c-1.1-0.7-2.1-1.7-3-2.5
		c-2-1.8-3.8-3.6-5.6-5.6s-3.3-4.1-4.8-6.3C296,52.2,294.8,49.9,293.9,47.4z"/>
	
		<linearGradient id="eE712PWqkp444_00000103945596659174172310000001014789509890322091_" gradientUnits="userSpaceOnUse" x1="376.9092" y1="139.6862" x2="401.5812" y2="120.0775" gradientTransform="matrix(1.208618e-07 -1 -1 -1.208618e-07 478.4255 485.1103)">
		<stop  offset="0" style="stop-color:#91AC65"/>
		<stop  offset="0.2717" style="stop-color:#8DA661"/>
		<stop  offset="0.625" style="stop-color:#7E9658"/>
		<stop  offset="1" style="stop-color:#687D4C"/>
	</linearGradient>
	<path id="eE712PWqkp444" style="fill:url(#eE712PWqkp444_00000103945596659174172310000001014789509890322091_);" d="M358.6,81.1
		l1.4,0.3l1,0.2c3.9,11.3-18.2,36.8-28.3,30.1C322.6,104.9,358.6,81.1,358.6,81.1z"/>
	<path id="eE712PWqkp445" class="st2" d="M342.5,102.5c2.8-3.1,5.7-6.2,8.2-9.4c1.3-1.7,2.6-3.2,3.8-5c0.6-0.9,1-1.3,1.3-1.8
		c0.8-1.2,2-2.2,3.4-2.8l0,0c-1,1.9-2.2,3.7-3.6,5.4c-1.3,1.7-2.7,3.2-4.1,4.8C348.6,96.8,345.6,99.8,342.5,102.5z"/>
	
		<linearGradient id="eE712PWqkp446_00000174603993435522738400000006725982434518039485_" gradientUnits="userSpaceOnUse" x1="400.4379" y1="82.0835" x2="441.0573" y2="98.9888" gradientTransform="matrix(1.208618e-07 -1 -1 -1.208618e-07 478.4255 485.1103)">
		<stop  offset="0" style="stop-color:#687D4C"/>
		<stop  offset="0.1079" style="stop-color:#718650"/>
		<stop  offset="0.4138" style="stop-color:#819B5B"/>
		<stop  offset="0.7141" style="stop-color:#8EA862"/>
		<stop  offset="1" style="stop-color:#91AC65"/>
	</linearGradient>
	<path id="eE712PWqkp446" style="fill:url(#eE712PWqkp446_00000174603993435522738400000006725982434518039485_);" d="M396.2,53.9
		c0.6,1.6,0.9,3.1,0.9,4.8v14.9c0,1.5-0.1,2.9-0.3,4.4c-0.4,2.9-0.7,8.9,2.9,10.5l-2.5-0.5l-1.2-0.2l0,0
		c-0.7-0.4-26.8-14.8-19.9-35.3c0.8-2.6,2.6-4.8,4.8-6.4C384.9,43.7,391.3,42.1,396.2,53.9z"/>
	<path id="eE712PWqkp447" class="st2" d="M383.1,52.5c0.1,2.9,0.4,5.7,1,8.6c0.6,2.8,1.5,5.6,2.6,8.2c0.5,1.3,1.2,2.6,1.8,3.9
		c0.6,1.3,1.4,2.5,2.2,3.6c0.9,1.3,1.1,1.9,1.6,2.4c2.4,2.5,2.4,3.5,2.5,5.2v0.2c-2-2.1-3.8-4.5-5.3-7c-0.7-1.3-1.5-2.5-2.1-3.9
		c-0.5-1.4-1.2-2.7-1.6-4.1c-1-2.8-1.6-5.6-2.1-8.4C383.2,58.4,382.9,55.4,383.1,52.5z"/>
	
		<linearGradient id="eE712PWqkp450_00000130632092229559395090000009168774727536563077_" gradientUnits="userSpaceOnUse" x1="391.1659" y1="-0.1447" x2="433.6111" y2="24.5821" gradientTransform="matrix(1.208618e-07 -1 -1 -1.208618e-07 478.4255 485.1103)">
		<stop  offset="0" style="stop-color:#687D4C"/>
		<stop  offset="0.1079" style="stop-color:#718650"/>
		<stop  offset="0.4138" style="stop-color:#819B5B"/>
		<stop  offset="0.7141" style="stop-color:#8EA862"/>
		<stop  offset="1" style="stop-color:#91AC65"/>
	</linearGradient>
	<path id="eE712PWqkp450" style="fill:url(#eE712PWqkp450_00000130632092229559395090000009168774727536563077_);" d="M462,53.8
		c3.8,0.1,9.3,2.9,14.3,14.9c0.9,2.1,1.6,4.4,1.8,6.8l3.8,27.6l0,0c-1-0.6-39.6-26.3-26.5-45.7C456.9,55.2,459.3,53.8,462,53.8z"/>
	<path id="eE712PWqkp452" class="st2" d="M459.4,68.3l3.1,3.2l3,3.3c2,2.2,3.9,4.5,5.7,7.1c1.8,2.4,3.4,5,4.9,7.7
		c0.7,1.4,1.4,2.7,2,4.2c0.3,0.7,0.5,1.5,0.8,2.2c0.2,0.7,0.5,1.6,0.5,2.4l-1.4-1.9c-0.1-0.1-0.2-0.2-0.2-0.2l0,0
		c-0.6-0.6-0.7-0.8-1.3-1.9l0,0c-0.5-1.4-1-2.8-1.7-4.1c-1.3-2.7-2.7-5.2-4.3-7.7c-1.6-2.4-4.5-6.3-6.3-8.5l-2-2.4L459.4,68.3z"/>
	
		<linearGradient id="eE712PWqkp453_00000142882724515489758150000006960044282646302630_" gradientUnits="userSpaceOnUse" x1="338.734" y1="-50.6329" x2="375.2843" y2="-68.9304" gradientTransform="matrix(1.208618e-07 -1 -1 -1.208618e-07 478.4255 485.1103)">
		<stop  offset="0" style="stop-color:#91AC65"/>
		<stop  offset="0.2717" style="stop-color:#8DA661"/>
		<stop  offset="0.625" style="stop-color:#7E9658"/>
		<stop  offset="1" style="stop-color:#687D4C"/>
	</linearGradient>
	<path id="eE712PWqkp453" style="fill:url(#eE712PWqkp453_00000142882724515489758150000006960044282646302630_);" d="M550.3,107.8
		c0.5,7.6-0.3,15.3-2.7,22.5c-0.6,2-1.7,4-3,5.6c-4.2,5.3-14.7,16.7-22.6,11.6C512,140.9,550.3,107.8,550.3,107.8z"/>
	<path id="eE712PWqkp454" class="st2" d="M534.4,138.6c1.6-1.9,2.9-4,4.3-6c1.4-2,2.6-4.3,3.7-6.4c1.1-2.2,2.1-4.4,2.9-6.8
		c0.5-1.3,0.7-1.9,1-2.5c0.5-1.6,1.5-3,2.7-4.1l0,0c-0.6,2.4-1.6,4.8-2.6,7.1c-1,2.3-2.2,4.5-3.4,6.7c-1.3,2.1-2.7,4.3-4.1,6.2
		C537.6,134.9,536,136.9,534.4,138.6z"/>
	
		<linearGradient id="eE712PWqkp455_00000053519412921019521860000010597468403505769118_" gradientUnits="userSpaceOnUse" x1="386.4522" y1="-103.1633" x2="404.6623" y2="-78.895" gradientTransform="matrix(1.208618e-07 -1 -1 -1.208618e-07 478.4255 485.1103)">
		<stop  offset="0" style="stop-color:#687D4C"/>
		<stop  offset="0.1079" style="stop-color:#718650"/>
		<stop  offset="0.4138" style="stop-color:#819B5B"/>
		<stop  offset="0.7141" style="stop-color:#8EA862"/>
		<stop  offset="1" style="stop-color:#91AC65"/>
	</linearGradient>
	<path id="eE712PWqkp455" style="fill:url(#eE712PWqkp455_00000053519412921019521860000010597468403505769118_);" d="M578.2,84.8
		c0,0,7,4.8,13.1,23l0,0l0,0c-1.3-0.4-38.7-10.4-38.1-24.9c0.1-1.7,1-3.1,2.4-4.1C559.1,76.5,567,75.5,578.2,84.8z"/>
	<path id="eE712PWqkp456" class="st12" d="M591.3,107.8L591.3,107.8L591.3,107.8z"/>
	<path id="eE712PWqkp457" class="st2" d="M588.3,104.2c-1.4-2-3.1-3.7-5.1-5l-24.9-15.6l31.3,21.9L588.3,104.2z"/>
	
		<linearGradient id="eE712PWqkp459_00000011710710238630498110000010991006738683840424_" gradientUnits="userSpaceOnUse" x1="339.9241" y1="-130.9529" x2="377.7947" y2="-149.3109" gradientTransform="matrix(1.208618e-07 -1 -1 -1.208618e-07 478.4255 485.1103)">
		<stop  offset="0" style="stop-color:#91AC65"/>
		<stop  offset="0.2717" style="stop-color:#8DA661"/>
		<stop  offset="0.625" style="stop-color:#7E9658"/>
		<stop  offset="1" style="stop-color:#687D4C"/>
	</linearGradient>
	<path id="eE712PWqkp459" style="fill:url(#eE712PWqkp459_00000011710710238630498110000010991006738683840424_);" d="M628.8,105.6
		c5.2,8.9,0,20.6,0,20.6S615,153,603.6,146.9C592.3,140.8,628.8,105.6,628.8,105.6z"/>
	<path id="eE712PWqkp460" class="st2" d="M617.1,133.4c1.6-1.5,2.8-3.1,4-4.9c1.2-1.8,2.1-3.6,2.9-5.6c0.8-1.9,1.4-4,1.7-6
		c0.2-1,0.3-1.4,0.4-1.7c0.3-1.5,0.8-3,1.6-4.2l0.2-0.4c-0.1,2.2-0.5,4.4-1,6.5c-0.5,2.1-1.3,4.2-2.2,6.1c-0.9,1.9-2,3.8-3.4,5.5
		C620.2,130.4,618.7,132,617.1,133.4z"/>
	
		<linearGradient id="eE712PWqkp461_00000062879801493530717930000010238218358197948804_" gradientUnits="userSpaceOnUse" x1="392.8118" y1="-193.289" x2="430.9969" y2="-168.2866" gradientTransform="matrix(1.208618e-07 -1 -1 -1.208618e-07 478.4255 485.1103)">
		<stop  offset="0" style="stop-color:#687D4C"/>
		<stop  offset="0.1079" style="stop-color:#718650"/>
		<stop  offset="0.4138" style="stop-color:#819B5B"/>
		<stop  offset="0.7141" style="stop-color:#8EA862"/>
		<stop  offset="1" style="stop-color:#91AC65"/>
	</linearGradient>
	<path id="eE712PWqkp461" style="fill:url(#eE712PWqkp461_00000062879801493530717930000010238218358197948804_);" d="M677,98.3
		L677,98.3c-1.1-0.5-44.9-19.5-28.7-41.2C664.4,35.5,676.9,97.5,677,98.3z"/>
	<path id="eE712PWqkp462" class="st12" d="M658.3,102"/>
	<path id="eE712PWqkp463" class="st2" d="M673.9,95.2c-2-2.3-3.8-4.6-5.6-7c-1.8-2.4-3.5-4.8-5.1-7.3c-1.6-2.5-3.2-5-4.6-7.7
		c-1.4-2.6-2.7-5.3-4-8c1.4,2.7,2.8,5.3,4.4,7.8c1.6,2.5,3.2,5,4.9,7.3c1.7,2.4,3.6,4.7,5.5,7c0.7,0.9,1.1,1.4,1.5,1.8
		C672.3,90.9,673.4,93,673.9,95.2L673.9,95.2z"/>
	
		<linearGradient id="eE712PWqkp434_00000069390033341344043680000010719676872287216831_" gradientUnits="userSpaceOnUse" x1="413.4065" y1="-315.8954" x2="449.2429" y2="-289.6723" gradientTransform="matrix(0.4657 0.8849 0.8849 -0.4657 852.0391 -436.5157)">
		<stop  offset="0" style="stop-color:#687D4C"/>
		<stop  offset="0.1079" style="stop-color:#718650"/>
		<stop  offset="0.4138" style="stop-color:#819B5B"/>
		<stop  offset="0.7141" style="stop-color:#8EA862"/>
		<stop  offset="1" style="stop-color:#91AC65"/>
	</linearGradient>
	
		<path id="eE712PWqkp434_00000018947002493719475480000003162142432969121702_" style="fill:url(#eE712PWqkp434_00000069390033341344043680000010719676872287216831_);" d="
		M757.7,71c0.8-0.6,1.4-1,2.2-1.6l0.2-0.2c0,0,49.3,4.6,41.3,27.3C801.5,96.6,792,115.6,757.7,71z"/>
	<path id="eE712PWqkp435_00000171694966803034805060000002223811243575074729_" class="st2" d="M790.4,86.5c-2.3-1.6-4.6-3.1-7-4.5
		c-2.4-1.4-4.8-2.8-7.3-4c-2.5-1.2-5-2.4-7.6-3.3c-2-0.7-2.5-1-4.5-1.5c-0.9-0.2-3.1-1.6-2.9-2.6l0,0c2.8,0.7,5.3,1.7,7.9,2.8
		c2.6,1.2,5,2.5,7.5,3.8c2.4,1.4,4.8,2.9,7.1,4.4C785.9,83.1,788.2,84.7,790.4,86.5z"/>
	
		<linearGradient id="eE712PWqkp436_00000135653327230612120690000003368108286988083591_" gradientUnits="userSpaceOnUse" x1="454.0276" y1="-321.1264" x2="483.6808" y2="-346.7377" gradientTransform="matrix(0.6414 0.7672 0.7672 -0.6414 683.9888 -514.118)">
		<stop  offset="0" style="stop-color:#91AC65"/>
		<stop  offset="0.2717" style="stop-color:#8DA661"/>
		<stop  offset="0.625" style="stop-color:#7E9658"/>
		<stop  offset="1" style="stop-color:#687D4C"/>
	</linearGradient>
	
		<path id="eE712PWqkp436_00000116939777842536276710000018283205096263689863_" style="fill:url(#eE712PWqkp436_00000135653327230612120690000003368108286988083591_);" d="
		M728.4,83.8c0,0-15-48.1,0.4-50.4C744.2,31.1,728.4,83.8,728.4,83.8z"/>
	<path id="eE712PWqkp437_00000066509191641230866590000018423528123813284994_" class="st2" d="M727.6,46.2l1.3,34.3l0,0
		c-1.1-2.8-1.7-5.8-1.7-8.7L727.6,46.2z"/>
	
		<linearGradient id="eE712PWqkp444_00000138539626714541888940000004998026912608007354_" gradientUnits="userSpaceOnUse" x1="353.4518" y1="-187.8637" x2="378.1238" y2="-207.4725" gradientTransform="matrix(-0.4018 0.9157 0.9157 0.4018 1120.155 -208.1114)">
		<stop  offset="0" style="stop-color:#91AC65"/>
		<stop  offset="0.2717" style="stop-color:#8DA661"/>
		<stop  offset="0.625" style="stop-color:#7E9658"/>
		<stop  offset="1" style="stop-color:#687D4C"/>
	</linearGradient>
	
		<path id="eE712PWqkp444_00000131336072754505938560000009316989526075949457_" style="fill:url(#eE712PWqkp444_00000138539626714541888940000004998026912608007354_);" d="
		M777.3,57.2l-1.4-1.2l-0.8-0.6c0.9-11.9,31.5-26.4,38-16.2C819.5,49.5,777.3,57.2,777.3,57.2z"/>
	<path id="eE712PWqkp445_00000053508531164669342820000014441412297069642883_" class="st2" d="M800.3,43.7
		c-3.8,1.7-7.7,3.4-11.3,5.3c-1.8,1-3.6,1.9-5.4,3.1c-1,0.6-1.4,0.8-1.9,1.1c-1.2,0.8-2.7,1.2-4.2,1.2l0,0c1.7-1.4,3.5-2.5,5.4-3.5
		c1.8-1,3.8-1.9,5.7-2.8C792.4,46.5,796.4,45,800.3,43.7z"/>
	
		<linearGradient id="eE712PWqkp446_00000057120435809266608860000003758215843714357659_" gradientUnits="userSpaceOnUse" x1="310.3197" y1="-229.5622" x2="350.9391" y2="-212.6569" gradientTransform="matrix(0.4483 0.8939 -0.8939 0.4483 361.9935 -79.3277)">
		<stop  offset="0" style="stop-color:#687D4C"/>
		<stop  offset="0.1079" style="stop-color:#718650"/>
		<stop  offset="0.4138" style="stop-color:#819B5B"/>
		<stop  offset="0.7141" style="stop-color:#8EA862"/>
		<stop  offset="1" style="stop-color:#91AC65"/>
	</linearGradient>
	
		<path id="eE712PWqkp446_00000116944326447158444150000011086414714187623564_" style="fill:url(#eE712PWqkp446_00000057120435809266608860000003758215843714357659_);" d="
		M719.9,122.7c-0.1-1.7-0.6-3.2-1.3-4.7l-6.7-13.3c-0.7-1.3-1.4-2.5-2.2-3.8c-1.6-2.4-4.6-7.6-2.1-10.7l-2,1.5l-1,0.7l0,0
		c-0.5,0.7-17.3,25.3-1.9,40.4c1.9,1.9,4.4,3.2,7.1,3.6C714.5,136.9,720.9,135.5,719.9,122.7z"/>
	<path id="eE712PWqkp447_00000124125874252266413040000001493036735116728228_" class="st2" d="M708.8,129.8c-1.2-2.6-2.2-5.3-3-8.1
		c-0.7-2.8-1.2-5.6-1.4-8.5c-0.1-1.4-0.1-2.9-0.1-4.3c0-1.4,0.1-2.8,0.3-4.2c0.2-1.6,0.1-2.2,0.3-2.8c1-3.3,0.6-4.2-0.1-5.7
		l-0.1-0.2c-0.8,2.8-1.3,5.7-1.6,8.7c-0.1,1.5-0.2,2.9-0.1,4.4c0.1,1.5,0.1,2.9,0.4,4.4c0.3,2.9,1,5.7,1.9,8.5
		C706.3,124.6,707.4,127.3,708.8,129.8z"/>
	
		<linearGradient id="eE712PWqkp446_00000001664761074182889720000011182863693946558855_" gradientUnits="userSpaceOnUse" x1="11.8344" y1="278.6831" x2="52.4538" y2="295.5885" gradientTransform="matrix(7.960739e-02 0.9968 -0.9968 7.960739e-02 407.8694 25.1567)">
		<stop  offset="0" style="stop-color:#687D4C"/>
		<stop  offset="0.1079" style="stop-color:#718650"/>
		<stop  offset="0.4138" style="stop-color:#819B5B"/>
		<stop  offset="0.7141" style="stop-color:#8EA862"/>
		<stop  offset="1" style="stop-color:#91AC65"/>
	</linearGradient>
	
		<path id="eE712PWqkp446_00000087402216748100786100000009543087636542666673_" style="fill:url(#eE712PWqkp446_00000001664761074182889720000011182863693946558855_);" d="
		M133.3,89.8c0.5-1.6,0.7-3.2,0.5-4.9l-1.2-14.9c-0.1-1.5-0.3-2.9-0.6-4.3c-0.6-2.8-1.4-8.8,2.1-10.7l-2.4,0.7l-1.2,0.3l0,0
		c-0.7,0.4-25.6,16.9-17,36.7c1,2.5,2.9,4.6,5.3,6C122.9,100.9,129.4,102,133.3,89.8z"/>
	<path id="eE712PWqkp447_00000083772040795251699700000010438298863980363144_" class="st2" d="M120.3,92.2
		c-0.1-2.9-0.1-5.8,0.3-8.7c0.4-2.8,1-5.7,1.9-8.4c0.4-1.3,1-2.7,1.5-4c0.5-1.3,1.2-2.6,1.9-3.8c0.8-1.4,0.9-2,1.4-2.5
		c2.2-2.7,2.1-3.7,2.1-5.4l0-0.2c-1.8,2.3-3.4,4.8-4.7,7.4c-0.6,1.4-1.3,2.6-1.8,4c-0.4,1.4-1,2.8-1.3,4.2c-0.8,2.8-1.2,5.7-1.4,8.6
		C120,86.4,119.9,89.4,120.3,92.2z"/>
	
		<linearGradient id="eE712PWqkp446_00000030477840745055502890000003340455271078889388_" gradientUnits="userSpaceOnUse" x1="187.8425" y1="21.7595" x2="228.4619" y2="38.6649" gradientTransform="matrix(-0.4483 0.8939 0.8939 0.4483 495.1614 -79.3277)">
		<stop  offset="0" style="stop-color:#687D4C"/>
		<stop  offset="0.1079" style="stop-color:#718650"/>
		<stop  offset="0.4138" style="stop-color:#819B5B"/>
		<stop  offset="0.7141" style="stop-color:#8EA862"/>
		<stop  offset="1" style="stop-color:#91AC65"/>
	</linearGradient>
	
		<path id="eE712PWqkp446_00000056404806192800081900000004013238690045383856_" style="fill:url(#eE712PWqkp446_00000030477840745055502890000003340455271078889388_);" d="
		M416.8,125.9c0.1-1.7,0.6-3.2,1.3-4.7l6.7-13.3c0.7-1.3,1.4-2.5,2.2-3.8c1.6-2.4,4.6-7.6,2.1-10.7l2,1.5l1,0.7l0,0
		c0.5,0.7,17.3,25.3,1.9,40.4c-1.9,1.9-4.4,3.2-7.1,3.6C422.2,140.1,415.8,138.7,416.8,125.9z"/>
	<path id="eE712PWqkp447_00000091732079794632954500000006531914914126264999_" class="st2" d="M427.9,133c1.2-2.6,2.2-5.3,3-8.1
		c0.7-2.8,1.2-5.6,1.4-8.5c0.1-1.4,0.1-2.9,0.1-4.3c0-1.4-0.1-2.8-0.3-4.2c-0.2-1.6-0.1-2.2-0.3-2.8c-1-3.3-0.6-4.2,0.1-5.7l0.1-0.2
		c0.8,2.8,1.3,5.7,1.6,8.7c0.1,1.5,0.2,2.9,0.1,4.4c-0.1,1.5-0.1,2.9-0.4,4.4c-0.3,2.9-1,5.7-1.9,8.5
		C430.4,127.7,429.3,130.5,427.9,133z"/>
	
		<linearGradient id="eE712PWqkp455_00000011747741110255268470000000544426544664509880_" gradientUnits="userSpaceOnUse" x1="361.5791" y1="205.7629" x2="379.7893" y2="230.0311" gradientTransform="matrix(-0.9828 0.1848 0.1848 0.9828 585.3523 -191.3559)">
		<stop  offset="0" style="stop-color:#687D4C"/>
		<stop  offset="0.1079" style="stop-color:#718650"/>
		<stop  offset="0.4138" style="stop-color:#819B5B"/>
		<stop  offset="0.7141" style="stop-color:#8EA862"/>
		<stop  offset="1" style="stop-color:#91AC65"/>
	</linearGradient>
	
		<path id="eE712PWqkp455_00000123439605959979802450000011035304878942071434_" style="fill:url(#eE712PWqkp455_00000011747741110255268470000000544426544664509880_);" d="
		M255,83.6c0,0,3.4-7.8,20.2-17.1l0,0l0,0c-0.1,1.3-3,40-17.4,42c-1.7,0.2-3.3-0.4-4.4-1.6C250.4,103.9,248,96.3,255,83.6z"/>
	<path id="eE712PWqkp457_00000109000071192534956570000013889610146144391057_" class="st2" d="M272.2,70.1c-1.7,1.7-3.1,3.7-4,6
		l-10.7,27.3l15.8-34.8L272.2,70.1z"/>
</g>
</svg>
